<?xml version="1.0" encoding="UTF-8" standalone="no"?>
<!-- Created with Inkscape (http://www.inkscape.org/) -->

<svg
   width="41.522449mm"
   height="33.346485mm"
   viewBox="0 0 41.52245 33.346485"
   version="1.1"
   id="svg11609"
   inkscape:version="1.1.1 (3bf5ae0d25, 2021-09-20)"
   sodipodi:docname="anemone1.svg"
   xmlns:inkscape="http://www.inkscape.org/namespaces/inkscape"
   xmlns:sodipodi="http://sodipodi.sourceforge.net/DTD/sodipodi-0.dtd"
   xmlns="http://www.w3.org/2000/svg"
   xmlns:svg="http://www.w3.org/2000/svg">
  <sodipodi:namedview
     id="namedview11611"
     pagecolor="#ffffff"
     bordercolor="#666666"
     borderopacity="1.0"
     inkscape:pageshadow="2"
     inkscape:pageopacity="0.0"
     inkscape:pagecheckerboard="0"
     inkscape:document-units="mm"
     showgrid="false"
     inkscape:zoom="1.877186"
     inkscape:cx="71.6498"
     inkscape:cy="49.275885"
     inkscape:window-width="1920"
     inkscape:window-height="1001"
     inkscape:window-x="-9"
     inkscape:window-y="-9"
     inkscape:window-maximized="1"
     inkscape:current-layer="layer1" />
  <defs
     id="defs11606" />
  <g
     inkscape:label="Шар 1"
     inkscape:groupmode="layer"
     id="layer1"
     transform="translate(-85.196986,-174.21197)">
    <g
       id="g15160">
      <path
         style="fill:none;stroke:#7a8844;stroke-width:0.4;stroke-linecap:butt;stroke-linejoin:miter;stroke-miterlimit:4;stroke-dasharray:none;stroke-opacity:1"
         d="m 102.859,188.63282 c -0.62924,-2.76239 -1.42552,-6.11646 -4.31321,-7.34356 -2.42174,-0.87813 -4.9843,-1.68385 -7.59304,-1.40276 -1.04198,1.69592 -1.23971,4.18176 -0.40263,5.90055 l 0.18111,0.37188"
         id="path5097-2-0"
         sodipodi:nodetypes="csssc" />
      <path
         style="fill:none;stroke:#7a8844;stroke-width:0.4;stroke-linecap:butt;stroke-linejoin:miter;stroke-miterlimit:4;stroke-dasharray:none;stroke-opacity:1"
         d="m 99.78603,193.07391 c -1.99871,-1.68442 -3.42719,-3.97072 -5.43448,-5.60006 -1.77296,-0.81035 -4.15282,-2.39346 -5.33145,-0.22216 -1.46969,0.78473 -4.31983,0.13585 -3.46794,2.64936 0.70622,3.9137 3.25048,7.33483 6.36412,9.72162 0.48096,0.34769 0.98645,0.66214 1.515,0.93253"
         id="path5099-00-2"
         sodipodi:nodetypes="csscssssc" />
      <path
         style="fill:none;stroke:#7a8844;stroke-width:0.4;stroke-linecap:butt;stroke-linejoin:miter;stroke-miterlimit:4;stroke-dasharray:none;stroke-opacity:1"
         d="m 101.60594,197.09771 c -2.92036,1.42424 -6.32597,0.3089 -8.92807,-1.2897 -1.23585,1.62371 -0.25687,4.02842 1.13462,5.24667 2.19625,2.12966 5.20569,3.61605 8.32108,3.42058 2.55658,-0.58798 4.61993,-2.34068 7.00225,-3.22138 2.09819,-0.008 3.86325,-1.04345 4.60775,-2.95594 0.84926,-0.21992 2.75194,-2.12415 1.65976,-2.0314 -1.73697,1.94523 -4.61336,1.6261 -6.39825,-0.0226 l -0.29851,-0.15963"
         id="path5101-3-7" />
      <path
         style="fill:none;stroke:#7a8844;stroke-width:0.4;stroke-linecap:butt;stroke-linejoin:miter;stroke-miterlimit:4;stroke-dasharray:none;stroke-opacity:1"
         d="m 110.37731,190.36157 c 2.3489,-1.01614 2.03698,-3.97178 2.8937,-5.98337 0.99964,-2.6143 3.77995,-4.18803 6.52153,-4.1207 1.75956,0.0571 5.70434,-0.25803 5.48782,2.21647 -0.24179,2.10982 -1.07417,4.12159 -1.92381,6.03991 -2.23223,3.18818 -5.66975,5.56686 -9.43557,6.54124 -0.97215,0.18804 -1.99532,0.19287 -2.94698,-0.10343"
         id="path5105-6-3"
         sodipodi:nodetypes="csssssc" />
      <path
         style="fill:none;stroke:#7a8844;stroke-width:0.4;stroke-linecap:butt;stroke-linejoin:miter;stroke-miterlimit:4;stroke-dasharray:none;stroke-opacity:1"
         d="m 99.45786,181.89668 c 0.0192,-2.15508 0.92891,-5.34881 3.64243,-5.07624 2.09684,-0.39812 3.56266,-3.53056 5.92306,-1.98263 1.72096,1.65999 4.0442,1.30917 6.04741,2.04517 1.01549,1.2685 2.97696,1.98338 3.62501,3.23832 l -0.0245,0.22547"
         id="path5107-6-9"
         sodipodi:nodetypes="csssssssc" />
      <path
         style="fill:none;stroke:#7a8844;stroke-width:0.4;stroke-linecap:butt;stroke-linejoin:miter;stroke-miterlimit:4;stroke-dasharray:none;stroke-opacity:1"
         d="m 123.90728,187.21704 c 7.53991,-0.92418 -3.4045,5.71414 -5.75946,8.53828 -1.38959,1.43114 -2.92254,2.8327 -4.84672,3.48843"
         id="path5109-8-7"
         sodipodi:nodetypes="ccs" />
      <path
         style="fill:none;stroke:#7a8844;stroke-width:0.4;stroke-linecap:butt;stroke-linejoin:miter;stroke-miterlimit:4;stroke-dasharray:none;stroke-opacity:1"
         d="m 126.46361,188.06539 c -1.63088,4.49491 -5.63543,6.54926 -9.5227,8.89075"
         id="path5111-5-6"
         sodipodi:nodetypes="cc" />
      <path
         style="fill:none;stroke:#7a8844;stroke-width:0.4;stroke-linecap:butt;stroke-linejoin:miter;stroke-miterlimit:4;stroke-dasharray:none;stroke-opacity:1"
         d="m 113.3011,199.24375 c -1.03552,2.10689 -2.26344,4.67818 -4.85729,5.08357 -2.63317,0.75689 -5.26989,1.52281 -7.79313,2.59508 -2.29236,0.70562 -5.1469,0.67211 -6.98848,-1.01164 -0.79937,-1.39116 0.17224,-3.53422 1.73817,-3.86526"
         id="path5113-8-8" />
      <path
         style="fill:none;stroke:#7a8844;stroke-width:0.4;stroke-linecap:butt;stroke-linejoin:miter;stroke-miterlimit:4;stroke-dasharray:none;stroke-opacity:1"
         d="m 107.99055,190.95769 c -0.93082,-1.11892 -2.61944,-1.24458 -3.87732,-0.64883 -1.11344,0.47565 -1.98474,1.45903 -2.29266,2.63224 -0.13888,0.41687 -0.21515,0.85552 -0.21463,1.29525"
         id="path5115-9-5" />
      <path
         style="fill:none;stroke:#7a8844;stroke-width:0.4;stroke-linecap:butt;stroke-linejoin:miter;stroke-miterlimit:4;stroke-dasharray:none;stroke-opacity:1"
         d="m 90.56716,180.91309 c -1.43077,0.34744 -4.05317,0.39805 -3.20256,2.61467 -0.11947,1.45124 -0.17382,2.81345 0.66662,4.06184"
         id="path5553-86-1"
         sodipodi:nodetypes="ccc" />
      <path
         style="fill:none;stroke:#7a8844;stroke-width:0.4;stroke-linecap:butt;stroke-linejoin:miter;stroke-miterlimit:4;stroke-dasharray:none;stroke-opacity:1"
         d="m 102.72475,190.89807 c -0.69134,-0.17765 -0.911,-0.98125 -1.04664,-1.5963 -0.0747,-0.39428 0.15133,0.44642 0.0472,0.46369"
         id="path5882-1-1" />
      <path
         style="fill:none;stroke:#7a8844;stroke-width:0.4;stroke-linecap:butt;stroke-linejoin:miter;stroke-miterlimit:4;stroke-dasharray:none;stroke-opacity:1"
         d="m 101.14351,190.80866 c 0.54942,-0.48294 -0.19262,-1.07695 -0.5729,-0.47814 -0.0831,0.31687 0.35537,0.40494 0.5729,0.47814 z"
         id="path5888-7-7" />
      <path
         style="fill:none;stroke:#7a8844;stroke-width:0.4;stroke-linecap:butt;stroke-linejoin:miter;stroke-miterlimit:4;stroke-dasharray:none;stroke-opacity:1"
         d="m 100.03964,194.28106 c -0.21066,-0.49439 -0.95338,-0.63917 -0.599,0.0585 0.14213,0.43767 0.56565,0.40483 0.67355,-0.0287"
         id="path5890-3-3" />
      <path
         style="fill:none;stroke:#7a8844;stroke-width:0.4;stroke-linecap:butt;stroke-linejoin:miter;stroke-miterlimit:4;stroke-dasharray:none;stroke-opacity:1"
         d="m 100.39765,192.71624 c -0.69544,-0.1143 -0.90909,0.64302 -0.13756,0.64856 0.4451,0.0479 0.30778,-0.4415 0.13756,-0.64856 z"
         id="path5892-7-7" />
      <path
         style="fill:none;stroke:#7a8844;stroke-width:0.4;stroke-linecap:butt;stroke-linejoin:miter;stroke-miterlimit:4;stroke-dasharray:none;stroke-opacity:1"
         d="m 100.06947,190.80866 c -0.18566,0.3045 -0.25554,1.26573 0.28566,0.74075 0.35904,-0.29365 0.28911,-0.89835 -0.28566,-0.74075 z"
         id="path5894-9-5" />
      <path
         style="fill:none;stroke:#7a8844;stroke-width:0.4;stroke-linecap:butt;stroke-linejoin:miter;stroke-miterlimit:4;stroke-dasharray:none;stroke-opacity:1"
         d="m 99.32361,191.18124 c -0.0832,0.38122 0.28254,1.30525 0.59498,0.59198 0.16688,-0.40887 -0.21957,-0.69217 -0.59498,-0.59198 z"
         id="path5896-2-6" />
      <path
         style="fill:none;stroke:#7a8844;stroke-width:0.4;stroke-linecap:butt;stroke-linejoin:miter;stroke-miterlimit:4;stroke-dasharray:none;stroke-opacity:1"
         d="m 100.44241,191.91148 c -0.1302,0.54674 0.58946,0.86242 0.66591,0.19508 0.0137,-0.40942 -0.51696,-0.29634 -0.75541,-0.22486"
         id="path5898-5-1" />
      <path
         style="fill:none;stroke:#7a8844;stroke-width:0.4;stroke-linecap:butt;stroke-linejoin:miter;stroke-miterlimit:4;stroke-dasharray:none;stroke-opacity:1"
         d="m 106.28998,196.5463 c 0.0445,0.60063 0.70352,1.09972 1.29145,0.9851 0.30635,-0.50903 -0.5132,-1.06763 -0.95603,-1.26807 -0.19311,-0.0783 -0.35124,0.093 -0.33542,0.28297 z"
         id="path5902-3-9" />
      <path
         style="fill:none;stroke:#7a8844;stroke-width:0.4;stroke-linecap:butt;stroke-linejoin:miter;stroke-miterlimit:4;stroke-dasharray:none;stroke-opacity:1"
         d="m 107.93087,196.26314 c 0.0711,0.44775 0.67985,0.56795 0.55083,-0.0105 -0.0481,-0.48289 -0.49612,-0.12845 -0.61058,0.0999"
         id="path5904-7-3" />
      <path
         style="fill:none;stroke:#7a8844;stroke-width:0.4;stroke-linecap:butt;stroke-linejoin:miter;stroke-miterlimit:4;stroke-dasharray:none;stroke-opacity:1"
         d="m 108.22922,196.0545 c 0.3546,0.0494 1.35992,-0.26513 0.60734,-0.56475 -0.61691,-0.26896 -1.08259,0.11207 -0.48797,0.65416"
         id="path5906-4-0" />
      <path
         style="fill:none;stroke:#7a8844;stroke-width:0.4;stroke-linecap:butt;stroke-linejoin:miter;stroke-miterlimit:4;stroke-dasharray:none;stroke-opacity:1"
         d="m 107.33417,195.16033 c -0.0917,0.73928 0.81375,0.47014 0.69311,-0.12207 -0.22328,-0.22522 -0.58507,0.11335 -0.79752,0.22639"
         id="path5908-8-2" />
      <path
         style="fill:none;stroke:#7a8844;stroke-width:0.4;stroke-linecap:butt;stroke-linejoin:miter;stroke-miterlimit:4;stroke-dasharray:none;stroke-opacity:1"
         d="m 109.69112,193.81906 c -0.48494,-0.11739 -1.16074,0.4098 -0.46896,0.72768 0.50461,0.25597 0.42475,-0.3358 0.26016,-0.59356"
         id="path5910-5-2" />
      <path
         style="fill:none;stroke:#7a8844;stroke-width:0.4;stroke-linecap:butt;stroke-linejoin:miter;stroke-miterlimit:4;stroke-dasharray:none;stroke-opacity:1"
         d="m 106.29101,193.57753 c -0.6084,0.30067 -0.25245,1.01981 0.34695,0.80792 0.69348,-0.003 0.58657,-0.9243 0.0338,-1.05561 -0.34151,-0.0354 -0.6229,0.29591 -0.67606,0.60598"
         id="path6358-5-2" />
      <path
         style="fill:none;stroke:#7a8844;stroke-width:0.4;stroke-linecap:butt;stroke-linejoin:miter;stroke-miterlimit:4;stroke-dasharray:none;stroke-opacity:1"
         d="m 107.00829,191.93361 c -0.46594,0.31306 -0.0788,1.01206 0.36639,0.5603 0.0705,-0.36945 -0.58842,-0.57398 -0.60745,-0.10923 -0.0181,0.0464 -0.0362,0.0927 -0.0543,0.13906"
         id="path6360-2-1" />
      <path
         style="fill:none;stroke:#7a8844;stroke-width:0.4;stroke-linecap:butt;stroke-linejoin:miter;stroke-miterlimit:4;stroke-dasharray:none;stroke-opacity:1"
         d="m 107.85213,191.91253 c -0.41596,0.41839 0.13322,0.8368 0.34836,0.25436 -0.10361,-0.79345 -0.86084,-0.20661 -0.83085,0.33703 -0.0208,0.0969 -0.0352,0.19517 -0.0449,0.2938"
         id="path6362-5-0" />
      <path
         style="fill:none;stroke:#7a8844;stroke-width:0.4;stroke-linecap:butt;stroke-linejoin:miter;stroke-miterlimit:4;stroke-dasharray:none;stroke-opacity:1"
         d="m 107.51459,193.51431 c -0.53446,0.26367 -0.31228,0.81507 0.21215,0.46771 0.63442,-0.23974 -0.29403,-0.92847 -0.51582,-0.44378 -0.0394,0.0482 -0.0788,0.0965 -0.11825,0.14468"
         id="path6364-0-7" />
      <path
         style="fill:none;stroke:#7a8844;stroke-width:0.4;stroke-linecap:butt;stroke-linejoin:miter;stroke-miterlimit:4;stroke-dasharray:none;stroke-opacity:1"
         d="m 102.859,188.63282 c -0.19199,-0.62701 0.83018,-0.83088 0.84727,-0.20129 -0.34633,0.3443 -1.10957,-0.11358 -0.51641,-0.43912"
         id="path6366-6-1" />
      <path
         style="fill:none;stroke:#7a8844;stroke-width:0.4;stroke-linecap:butt;stroke-linejoin:miter;stroke-miterlimit:4;stroke-dasharray:none;stroke-opacity:1"
         d="m 104.24467,187.71841 c -0.29593,0.38781 -0.13672,1.08504 0.28783,0.42643 0.35289,-0.46478 -0.18213,-0.46707 -0.47769,-0.32105"
         id="path6368-1-0" />
      <path
         style="fill:none;stroke:#7a8844;stroke-width:0.4;stroke-linecap:butt;stroke-linejoin:miter;stroke-miterlimit:4;stroke-dasharray:none;stroke-opacity:1"
         d="m 104.81429,187.4655 c 0.0433,-0.46133 0.55123,-0.80644 0.48988,-0.1191 0.0458,0.3394 -0.20211,0.97939 -0.46881,0.30879"
         id="path6370-2-2" />
      <path
         style="fill:none;stroke:#7a8844;stroke-width:0.4;stroke-linecap:butt;stroke-linejoin:miter;stroke-miterlimit:4;stroke-dasharray:none;stroke-opacity:1"
         d="m 102.4726,189.00405 c -0.33872,0.40286 0.14005,0.81664 0.31205,0.24347 -0.18034,-0.46762 -0.72475,-0.13057 -0.67673,0.29538 -0.0342,0.18082 -0.20439,0.31864 -0.38263,0.22255"
         id="path6372-1-5" />
      <path
         style="fill:none;stroke:#7a8844;stroke-width:0.4;stroke-linecap:butt;stroke-linejoin:miter;stroke-miterlimit:4;stroke-dasharray:none;stroke-opacity:1"
         d="m 102.83123,190.33184 c 0.73009,0.74509 0.28464,-1.04802 -0.29121,-0.51334 -0.15413,0.15764 -0.23093,0.37174 -0.29948,0.57656"
         id="path6374-7-4" />
      <path
         style="fill:none;stroke:#7a8844;stroke-width:0.4;stroke-linecap:butt;stroke-linejoin:miter;stroke-miterlimit:4;stroke-dasharray:none;stroke-opacity:1"
         d="m 101.14351,190.80866 c -0.37866,0.12364 -0.71252,0.78388 -0.0535,0.67059 0.77113,-0.14791 -0.0329,-0.3048 -0.24184,-0.19902"
         id="path6376-9-4" />
      <path
         style="fill:none;stroke:#7a8844;stroke-width:0.4;stroke-linecap:butt;stroke-linejoin:miter;stroke-miterlimit:4;stroke-dasharray:none;stroke-opacity:1"
         d="m 102.13505,194.23089 c -0.34749,-0.24267 -0.76258,0.0693 -0.30071,0.34788 0.67832,0.67892 0.72569,-0.99253 0.001,-0.57799 -0.0978,0.0523 -0.18586,0.13161 -0.22963,0.23555"
         id="path6378-7-5" />
      <path
         style="fill:none;stroke:#7a8844;stroke-width:0.4;stroke-linecap:butt;stroke-linejoin:miter;stroke-miterlimit:4;stroke-dasharray:none;stroke-opacity:1"
         d="m 100.55285,194.69456 c -0.62103,0.10373 -0.48542,0.79565 0.0879,0.79469 0.8203,0.0656 -0.24531,-0.8561 -0.48873,-0.20457"
         id="path6380-0-3" />
      <path
         style="fill:none;stroke:#7a8844;stroke-width:0.4;stroke-linecap:butt;stroke-linejoin:miter;stroke-miterlimit:4;stroke-dasharray:none;stroke-opacity:1"
         d="m 100.99586,195.81159 c -0.33087,0.0559 -0.82852,0.60775 -0.19029,0.57298 0.6337,0.011 0.40235,-0.45051 -0.0206,-0.53083"
         id="path6382-1-4" />
      <path
         style="fill:none;stroke:#7a8844;stroke-width:0.4;stroke-linecap:butt;stroke-linejoin:miter;stroke-miterlimit:4;stroke-dasharray:none;stroke-opacity:1"
         d="m 101.35449,196.54925 c -0.41197,0.5307 0.0922,1.34434 0.57095,0.62581 0.26782,-0.34793 -0.11988,-0.61314 -0.44437,-0.62581"
         id="path6384-0-8" />
      <path
         style="fill:none;stroke:#7a8844;stroke-width:0.4;stroke-linecap:butt;stroke-linejoin:miter;stroke-miterlimit:4;stroke-dasharray:none;stroke-opacity:1"
         d="m 103,196.71785 c -0.16712,0.23003 -0.49087,1.17897 0.0695,0.6656 0.41657,-0.25571 0.5595,-1.04177 -0.11554,-0.56846 l -0.0791,0.0432 -0.0858,0.0493"
         id="path6386-0-5" />
      <path
         style="fill:none;stroke:#7a8844;stroke-width:0.4;stroke-linecap:butt;stroke-linejoin:miter;stroke-miterlimit:4;stroke-dasharray:none;stroke-opacity:1"
         d="m 103.84386,196.9497 c -0.18721,0.31645 -0.20906,1.31456 0.30291,0.69671 0.27594,-0.2984 0.20433,-0.80689 -0.30291,-0.69671 z"
         id="path6388-2-7" />
      <path
         style="fill:none;stroke:#7a8844;stroke-width:0.4;stroke-linecap:butt;stroke-linejoin:miter;stroke-miterlimit:4;stroke-dasharray:none;stroke-opacity:1"
         d="m 104.89867,197.24476 c -0.32787,0.50733 0.3468,1.24789 0.64065,0.51481 0.0629,-0.42971 -0.42968,-0.59269 -0.76724,-0.66235"
         id="path6390-2-4" />
      <path
         style="fill:none;stroke:#7a8844;stroke-width:0.4;stroke-linecap:butt;stroke-linejoin:miter;stroke-miterlimit:4;stroke-dasharray:none;stroke-opacity:1"
         d="m 105.57374,197.09722 c -0.23284,0.43773 0.29154,1.1144 0.55595,0.4526 0.0431,-0.61377 -0.78109,-0.56063 -1.07555,-0.21186 l -0.0807,-0.0189 -0.0748,-0.0743"
         id="path6392-3-0" />
      <path
         style="fill:none;stroke:#7a8844;stroke-width:0.4;stroke-linecap:butt;stroke-linejoin:miter;stroke-miterlimit:4;stroke-dasharray:none;stroke-opacity:1"
         d="m 111.3963,190.8798 c -0.004,-0.32404 0.41795,-1.37996 0.5653,-0.57038 0.10507,0.56956 -0.29708,1.32856 -0.94504,0.84436"
         id="path6394-7-7" />
      <path
         style="fill:none;stroke:#7a8844;stroke-width:0.4;stroke-linecap:butt;stroke-linejoin:miter;stroke-miterlimit:4;stroke-dasharray:none;stroke-opacity:1"
         d="m 109.58202,188.3507 c -0.17598,0.25776 -0.0162,0.72497 0.17415,0.24919 0.13791,-0.40828 -0.48333,-0.14253 -0.59606,-0.0173"
         id="path6396-0-0" />
      <path
         style="fill:none;stroke:#7a8844;stroke-width:0.4;stroke-linecap:butt;stroke-linejoin:miter;stroke-miterlimit:4;stroke-dasharray:none;stroke-opacity:1"
         d="m 109.32888,189.42556 c 0.16326,-0.5031 0.66413,-0.28367 0.44062,0.19667 -0.0411,0.39014 -0.44743,0.41776 -0.60941,0.0984"
         id="path6398-6-0" />
      <path
         style="fill:none;stroke:#7a8844;stroke-width:0.4;stroke-linecap:butt;stroke-linejoin:miter;stroke-miterlimit:4;stroke-dasharray:none;stroke-opacity:1"
         d="m 107.99055,190.95769 c 0.14613,-0.50577 1.0854,-0.75983 0.93993,-0.002 -0.17846,0.38847 -0.67877,0.15465 -0.93993,0.002 z"
         id="path6400-5-8" />
      <path
         style="fill:none;stroke:#7a8844;stroke-width:0.4;stroke-linecap:butt;stroke-linejoin:miter;stroke-miterlimit:4;stroke-dasharray:none;stroke-opacity:1"
         d="m 106.45977,189.6574 c -0.79368,-0.28359 -0.58812,-1.36128 -0.42054,-1.99943 0.1787,-0.79918 0.37535,0.56851 -0.0122,0.32949 -0.0457,-0.0334 -0.0913,-0.0668 -0.13695,-0.10016"
         id="path6402-1-7" />
      <path
         style="fill:none;stroke:#7a8844;stroke-width:0.4;stroke-linecap:butt;stroke-linejoin:miter;stroke-miterlimit:4;stroke-dasharray:none;stroke-opacity:1"
         d="m 105.00415,188.37176 c -0.28307,0.23402 -0.21378,0.809 0.20036,0.43989 0.40903,-0.38404 -0.51737,-0.38629 -0.49573,0.003"
         id="path6404-9-3" />
      <path
         style="fill:none;stroke:#7a8844;stroke-width:0.4;stroke-linecap:butt;stroke-linejoin:miter;stroke-miterlimit:4;stroke-dasharray:none;stroke-opacity:1"
         d="m 104.28687,189.6574 c -0.23494,-0.2477 -0.24731,-0.4347 -0.4537,-0.33162 -0.21881,-0.0526 0.0924,-0.28316 0.15833,-0.36388"
         id="path6406-7-5" />
      <path
         style="fill:none;stroke:#7a8844;stroke-width:0.4;stroke-linecap:butt;stroke-linejoin:miter;stroke-miterlimit:4;stroke-dasharray:none;stroke-opacity:1"
         d="m 103.40083,188.9619 c -0.3512,0.48341 0.29384,0.88829 0.41619,0.24612 -0.3033,-0.68576 -1.01443,0.0429 -1.42074,0.0433 -0.009,-0.0888 0.0453,-0.16916 0.0763,-0.24719"
         id="path6408-2-6" />
      <path
         style="fill:none;stroke:#7a8844;stroke-width:0.4;stroke-linecap:butt;stroke-linejoin:miter;stroke-miterlimit:4;stroke-dasharray:none;stroke-opacity:1"
         d="m 107.00829,188.18208 c -0.10919,0.30538 0.003,1.06004 0.27248,0.42393 0.22605,-0.27514 0.43284,-1.44377 -0.17366,-0.81572 -0.16352,0.1477 -0.27411,0.3363 -0.39414,0.51825"
         id="path6410-1-8" />
      <path
         style="fill:none;stroke:#7a8844;stroke-width:0.4;stroke-linecap:butt;stroke-linejoin:miter;stroke-miterlimit:4;stroke-dasharray:none;stroke-opacity:1"
         d="m 107.9998,188.47714 c 0.0219,0.24408 0.33299,0.61743 0.23784,0.12831 0.0511,-0.37113 -0.35423,-0.75363 -0.43427,-0.2121 l -0.0356,0.12596"
         id="path6412-1-2" />
      <path
         style="fill:none;stroke:#7a8844;stroke-width:0.4;stroke-linecap:butt;stroke-linejoin:miter;stroke-miterlimit:4;stroke-dasharray:none;stroke-opacity:1"
         d="m 108.33734,189.34126 c 0.3674,0.54977 -1.26216,0.43564 -0.53361,-0.14952 0.0713,-0.25472 0.56293,-0.26775 0.40704,0.0442"
         id="path6414-3-5" />
      <path
         style="fill:none;stroke:#7a8844;stroke-width:0.4;stroke-linecap:butt;stroke-linejoin:miter;stroke-miterlimit:4;stroke-dasharray:none;stroke-opacity:1"
         d="m 107.32472,189.4045 c -0.26998,0.0836 -0.64285,0.58754 -0.10599,0.35341 0.53025,-0.22737 -0.057,-0.368 -0.29483,-0.29019"
         id="path6416-8-0" />
      <path
         style="fill:none;stroke:#7a8844;stroke-width:0.4;stroke-linecap:butt;stroke-linejoin:miter;stroke-miterlimit:4;stroke-dasharray:none;stroke-opacity:1"
         d="m 109.05461,191.21703 c -0.10629,-0.56754 0.80862,-1.09608 0.91554,-0.35192 -0.096,0.30334 -0.48933,0.28792 -0.74676,0.28868"
         id="path6418-9-3" />
      <path
         style="fill:none;stroke:#7a8844;stroke-width:0.4;stroke-linecap:butt;stroke-linejoin:miter;stroke-miterlimit:4;stroke-dasharray:none;stroke-opacity:1"
         d="m 110.48917,191.5121 c 0.36002,-0.80207 1.2546,0.19847 0.59439,0.51227 -0.3761,-0.1226 -0.46926,-0.512 -0.1613,-0.74888 0.0314,-0.0405 0.0629,-0.0811 0.0943,-0.1217"
         id="path6420-3-8" />
      <path
         style="fill:none;stroke:#7a8844;stroke-width:0.4;stroke-linecap:butt;stroke-linejoin:miter;stroke-miterlimit:4;stroke-dasharray:none;stroke-opacity:1"
         d="m 111.22753,192.16545 c 0.37483,-0.2325 0.94734,0.0234 0.46566,0.41873 -0.27308,0.44328 -1.25646,0.70038 -1.12615,-0.10662 0.2338,-0.0321 0.46671,-0.0446 0.70267,-0.0384"
         id="path6422-3-8" />
      <path
         style="fill:none;stroke:#7a8844;stroke-width:0.4;stroke-linecap:butt;stroke-linejoin:miter;stroke-miterlimit:4;stroke-dasharray:none;stroke-opacity:1"
         d="m 110.74232,193.32463 c 0.45925,-0.33992 1.20741,0.081 0.53679,0.49571 -0.39021,0.27104 -0.76013,-0.11359 -0.83214,-0.49571"
         id="path6424-1-2" />
      <path
         style="fill:none;stroke:#7a8844;stroke-width:0.4;stroke-linecap:butt;stroke-linejoin:miter;stroke-miterlimit:4;stroke-dasharray:none;stroke-opacity:1"
         d="m 110.15162,194.14658 c 0.40636,-0.18131 1.3027,0.10042 0.67004,0.55026 -0.3442,0.24925 -0.86791,0.22694 -1.13416,-0.12873"
         id="path6426-5-1" />
      <path
         style="fill:none;stroke:#7a8844;stroke-width:0.4;stroke-linecap:butt;stroke-linejoin:miter;stroke-miterlimit:4;stroke-dasharray:none;stroke-opacity:1"
         d="m 109.56093,195.15824 c 0.40028,-0.22659 1.35017,0.0945 0.64695,0.50314 -0.33048,0.16154 -0.71795,-0.0109 -0.92121,-0.29239"
         id="path6428-8-7" />
      <path
         style="fill:none;stroke:#7a8844;stroke-width:0.4;stroke-linecap:butt;stroke-linejoin:miter;stroke-miterlimit:4;stroke-dasharray:none;stroke-opacity:1"
         d="m 109.28667,195.9802 c 0.20496,-0.0799 0.70667,-0.0296 0.22853,0.10706 -0.23973,0.0484 -0.61607,0.21681 -0.80863,-0.003"
         id="path6430-8-1" />
      <path
         style="fill:none;stroke:#7a8844;stroke-width:0.4;stroke-linecap:butt;stroke-linejoin:miter;stroke-miterlimit:4;stroke-dasharray:none;stroke-opacity:1"
         d="m 108.27406,192.27083 c -0.22352,-0.56229 0.43804,-1.10022 0.76181,-0.42776 0.16887,0.38766 -0.40198,0.27983 -0.59304,0.217"
         id="path6432-0-1" />
      <path
         style="fill:none;stroke:#7a8844;stroke-width:0.2;stroke-linecap:butt;stroke-linejoin:miter;stroke-miterlimit:4;stroke-dasharray:none;stroke-opacity:1"
         d="m 111.22753,192.16545 c 2.74072,-1.83828 5.11531,-4.79042 5.05702,-8.24196"
         id="path6446-0-3" />
      <path
         style="fill:none;stroke:#7a8844;stroke-width:0.2;stroke-linecap:butt;stroke-linejoin:miter;stroke-miterlimit:4;stroke-dasharray:none;stroke-opacity:1"
         d="m 110.74232,193.32463 c 3.18563,-0.50272 6.44512,-1.92843 8.2254,-4.74287 0.49481,-0.62129 0.98342,-1.24769 1.49366,-1.85652"
         id="path6448-22-9" />
      <path
         style="fill:none;stroke:#7a8844;stroke-width:0.2;stroke-linecap:butt;stroke-linejoin:miter;stroke-miterlimit:4;stroke-dasharray:none;stroke-opacity:1"
         d="m 108.34858,196.14392 c 0.7762,1.29392 1.74239,2.74444 3.34145,3.04021"
         id="path6450-1-5" />
      <path
         style="fill:none;stroke:#7a8844;stroke-width:0.2;stroke-linecap:butt;stroke-linejoin:miter;stroke-miterlimit:4;stroke-dasharray:none;stroke-opacity:1"
         d="m 104.89867,197.24476 c 0.29252,1.85164 -0.32762,3.73594 0.10843,5.57569"
         id="path6452-2-8" />
      <path
         style="fill:none;stroke:#7a8844;stroke-width:0.2;stroke-linecap:butt;stroke-linejoin:miter;stroke-miterlimit:4;stroke-dasharray:none;stroke-opacity:1"
         d="m 103.84386,196.9497 c -0.79738,2.48321 -3.67605,2.93635 -5.8123,3.70533 -0.93098,0.33486 -1.97029,0.59463 -2.63119,1.39047"
         id="path6454-8-5" />
      <path
         style="fill:none;stroke:#7a8844;stroke-width:0.2;stroke-linecap:butt;stroke-linejoin:miter;stroke-miterlimit:4;stroke-dasharray:none;stroke-opacity:1"
         d="m 106.75512,197.2026 c 0.65487,1.26752 1.97009,2.62462 1.26578,4.15197"
         id="path6460-6-9" />
      <path
         style="fill:none;stroke:#7a8844;stroke-width:0.2;stroke-linecap:butt;stroke-linejoin:miter;stroke-miterlimit:4;stroke-dasharray:none;stroke-opacity:1"
         d="m 107.8712,196.35257 c 1.2244,1.27754 2.11094,2.92938 2.28042,4.70694"
         id="path6462-1-2" />
      <path
         style="fill:none;stroke:#7a8844;stroke-width:0.2;stroke-linecap:butt;stroke-linejoin:miter;stroke-miterlimit:4;stroke-dasharray:none;stroke-opacity:1"
         d="m 107.02093,190.12312 c 0.37745,-3.06669 0.30478,-6.26173 1.3525,-9.19604 0.30268,-0.66869 0.65759,-1.31223 0.95967,-1.98119"
         id="path6464-4-1" />
      <path
         style="fill:none;stroke:#7a8844;stroke-width:0.2;stroke-linecap:butt;stroke-linejoin:miter;stroke-miterlimit:4;stroke-dasharray:none;stroke-opacity:1"
         d="m 105.73803,189.78035 c -0.1473,-3.21923 -0.45236,-6.53425 0.55195,-9.65713"
         id="path6466-9-4" />
      <path
         style="fill:none;stroke:#7a8844;stroke-width:0.2;stroke-linecap:butt;stroke-linejoin:miter;stroke-miterlimit:4;stroke-dasharray:none;stroke-opacity:1"
         d="m 102.30706,191.62832 c -2.01799,-3.25399 -5.65564,-4.88202 -8.44966,-7.34804 -0.42089,-0.31121 -0.84978,-0.61196 -1.29133,-0.8933"
         id="path6468-8-9" />
      <path
         style="fill:none;stroke:#7a8844;stroke-width:0.2;stroke-linecap:butt;stroke-linejoin:miter;stroke-miterlimit:4;stroke-dasharray:none;stroke-opacity:1"
         d="m 102.39656,190.92788 c -1.80275,-3.7198 -3.01335,-8.63693 -7.54814,-9.89557"
         id="path6470-47-9" />
      <path
         style="fill:none;stroke:#7a8844;stroke-width:0.2;stroke-linecap:butt;stroke-linejoin:miter;stroke-miterlimit:4;stroke-dasharray:none;stroke-opacity:1"
         d="m 100.18881,196.29295 c -2.29474,0.31232 -4.6778,0.065 -6.70822,-1.10229 -2.15877,-0.95609 -4.08978,-2.41858 -5.59854,-4.23297"
         id="path6472-5-0" />
      <path
         style="fill:none;stroke:#7a8844;stroke-width:0.2;stroke-linecap:butt;stroke-linejoin:miter;stroke-miterlimit:4;stroke-dasharray:none;stroke-opacity:1"
         d="m 100.15201,195.28469 c -3.63438,-0.81515 -7.85208,-1.87354 -9.78097,-5.40301 -0.26569,-0.4354 -0.53554,-0.87103 -0.863,-1.26375"
         id="path6474-1-6" />
      <path
         style="fill:none;stroke:#7a8844;stroke-width:0.2;stroke-linecap:butt;stroke-linejoin:miter;stroke-miterlimit:4;stroke-dasharray:none;stroke-opacity:1"
         d="m 102.78905,196.90753 c -1.12418,2.38175 -4.0758,2.37506 -6.24346,3.13625 -0.54443,0.19837 -1.09713,0.37568 -1.65242,0.54124"
         id="path6476-00-1" />
      <path
         style="fill:none;stroke:#7a8844;stroke-width:0.4;stroke-linecap:butt;stroke-linejoin:miter;stroke-miterlimit:4;stroke-dasharray:none;stroke-opacity:1"
         d="m 104.45515,197.39577 c -0.6703,2.4483 -3.31295,3.7479 -3.88128,6.25323 -0.10608,0.19509 -0.22965,0.38268 -0.38506,0.54253"
         id="path6671-7-8" />
      <path
         style="fill:none;stroke:#7a8844;stroke-width:0.4;stroke-linecap:butt;stroke-linejoin:miter;stroke-miterlimit:4;stroke-dasharray:none;stroke-opacity:1"
         d="m 118.14781,195.75532 c 1.25391,0.74369 6.06057,-5.45929 7.36411,-6.26706"
         id="path9318-1" />
      <path
         style="fill:none;stroke:#7a8844;stroke-width:0.4;stroke-linecap:butt;stroke-linejoin:miter;stroke-miterlimit:4;stroke-dasharray:none;stroke-opacity:1"
         d="m 122.51466,193.53169 c 0.75696,-1.64772 1.91942,-2.73642 2.99725,-4.04343"
         id="path9320-2" />
      <path
         style="fill:none;stroke:#7a8844;stroke-width:0.4;stroke-linecap:butt;stroke-linejoin:miter;stroke-miterlimit:4;stroke-dasharray:none;stroke-opacity:1"
         d="m 105.28193,203.20469 c -0.84844,0.64909 -1.80234,1.21417 -2.72088,1.7344"
         id="path9340-4" />
      <path
         style="fill:none;stroke:#7a8844;stroke-width:0.4;stroke-linecap:butt;stroke-linejoin:miter;stroke-miterlimit:4;stroke-dasharray:none;stroke-opacity:1"
         d="m 107.23989,202.09363 c -1.05336,0.9935 -2.45866,1.74156 -3.44026,2.71555"
         id="path9342-0" />
      <path
         style="fill:none;stroke:#7a8844;stroke-width:0.4;stroke-linecap:butt;stroke-linejoin:miter;stroke-miterlimit:4;stroke-dasharray:none;stroke-opacity:1"
         d="m 108.43515,201.5463 c -1.05732,0.93825 -2.03398,1.91657 -3.09753,2.82102"
         id="path9344-4" />
      <path
         style="fill:none;stroke:#7a8844;stroke-width:0.4;stroke-linecap:butt;stroke-linejoin:miter;stroke-miterlimit:4;stroke-dasharray:none;stroke-opacity:1"
         d="m 109.55515,201.19244 c -0.31353,0.74264 -1.06003,1.24159 -1.40881,1.9326"
         id="path9346-8" />
      <path
         style="fill:none;stroke:#7a8844;stroke-width:0.4;stroke-linecap:butt;stroke-linejoin:miter;stroke-miterlimit:4;stroke-dasharray:none;stroke-opacity:1"
         d="m 101.7719,204.50421 c -0.13279,0.16692 -0.27471,0.31988 -0.43417,0.46052"
         id="path9348-4" />
      <path
         style="fill:none;stroke:#7a8844;stroke-width:0.2;stroke-linecap:butt;stroke-linejoin:miter;stroke-miterlimit:4;stroke-dasharray:none;stroke-opacity:1"
         d="m 101.19014,204.50223 c -0.68886,0.38793 -0.44778,0.23161 -0.74733,0.42964"
         id="path9350-7" />
      <path
         style="fill:none;stroke:#7a8844;stroke-width:0.4;stroke-linecap:butt;stroke-linejoin:miter;stroke-miterlimit:4;stroke-dasharray:none;stroke-opacity:1"
         d="m 102.15202,192.11348 c 0.37731,-0.62181 -0.82032,-0.87454 -0.7591,-0.10797 -0.17441,0.47422 0.55211,0.40524 0.70625,0.13939"
         id="path9840-7" />
      <path
         style="fill:none;stroke:#7a8844;stroke-width:0.4;stroke-linecap:butt;stroke-linejoin:miter;stroke-miterlimit:4;stroke-dasharray:none;stroke-opacity:1"
         d="m 101.32686,192.8167 c -0.11784,-0.67807 -0.91054,0.21388 -0.19979,0.27029 0.12398,-0.0243 0.17477,-0.16332 0.19979,-0.27029 z"
         id="path9842-6" />
      <path
         style="fill:none;stroke:#7a8844;stroke-width:0.4;stroke-linecap:butt;stroke-linejoin:miter;stroke-miterlimit:4;stroke-dasharray:none;stroke-opacity:1"
         d="m 101.33532,193.42795 c -0.23847,-0.56926 -1.22465,0.22952 -0.51739,0.46899 0.16456,0.11245 0.86923,-0.43602 0.51739,-0.46899 z"
         id="path9844-5" />
      <path
         style="fill:none;stroke:#7a8844;stroke-width:0.4;stroke-linecap:butt;stroke-linejoin:miter;stroke-miterlimit:4;stroke-dasharray:none;stroke-opacity:1"
         d="m 100.91118,194.07986 c -0.0883,-0.38978 -0.67344,-0.7481 -0.67149,-0.1242 -0.0624,0.42551 0.77687,0.48206 0.68232,0.0399"
         id="path9846-9" />
      <path
         style="fill:none;stroke:#7a8844;stroke-width:0.4;stroke-linecap:butt;stroke-linejoin:miter;stroke-miterlimit:4;stroke-dasharray:none;stroke-opacity:1"
         d="m 101.60594,194.23635 c -0.37127,-0.14266 -1.38373,0.27106 -0.6801,0.58152 0.46484,0.10928 0.58732,-0.6317 0.61155,-0.64234 l 0.0686,0.0608"
         id="path9848-6" />
      <path
         style="fill:none;stroke:#7a8844;stroke-width:0.4;stroke-linecap:butt;stroke-linejoin:miter;stroke-miterlimit:4;stroke-dasharray:none;stroke-opacity:1"
         d="m 101.43516,195.08277 c -0.53304,-0.11623 -0.44152,0.77366 0.0233,0.30774 0.0938,-0.0875 0.0781,-0.2363 -0.0233,-0.30774 z"
         id="path9850-5" />
      <path
         style="fill:none;stroke:#7a8844;stroke-width:0.4;stroke-linecap:butt;stroke-linejoin:miter;stroke-miterlimit:4;stroke-dasharray:none;stroke-opacity:1"
         d="m 105.41325,194.66424 c 0.30873,-0.46112 -0.92088,-0.65302 -0.45653,-0.004 0.15919,0.44682 0.49051,0.318 0.42588,-0.12303"
         id="path9852-7" />
      <path
         style="fill:none;stroke:#7a8844;stroke-width:0.4;stroke-linecap:butt;stroke-linejoin:miter;stroke-miterlimit:4;stroke-dasharray:none;stroke-opacity:1"
         d="m 105.69765,194.78113 c -1.04255,0.1147 0.28719,1.42123 0.44243,0.43822 0.16278,-0.54949 -0.38579,-0.49047 -0.72648,-0.55511"
         id="path9854-5" />
      <path
         style="fill:none;stroke:#7a8844;stroke-width:0.4;stroke-linecap:butt;stroke-linejoin:miter;stroke-miterlimit:4;stroke-dasharray:none;stroke-opacity:1"
         d="m 103.97803,194.85958 c -0.0198,-0.45188 -0.79764,-0.82172 -0.62607,-0.12957 0.006,0.35464 0.5197,0.53779 0.58394,0.10836"
         id="path9856-7" />
      <path
         style="fill:none;stroke:#7a8844;stroke-width:0.4;stroke-linecap:butt;stroke-linejoin:miter;stroke-miterlimit:4;stroke-dasharray:none;stroke-opacity:1"
         d="m 102.54407,194.6861 c -0.50656,-0.34716 0.42645,-0.68045 0.38934,-0.0745 0.0923,0.55734 -0.60512,0.39243 -0.42048,-0.052"
         id="path9858-2" />
      <path
         style="fill:none;stroke:#7a8844;stroke-width:0.4;stroke-linecap:butt;stroke-linejoin:miter;stroke-miterlimit:4;stroke-dasharray:none;stroke-opacity:1"
         d="m 103.31644,195.03178 c -0.55874,0.14073 0.0857,1.08939 0.15754,0.4799 0.007,-0.12589 -0.0816,-0.53804 -0.26717,-0.29642"
         id="path9860-9" />
      <path
         style="fill:none;stroke:#7a8844;stroke-width:0.4;stroke-linecap:butt;stroke-linejoin:miter;stroke-miterlimit:4;stroke-dasharray:none;stroke-opacity:1"
         d="m 104.5769,195.55713 c -0.43649,-0.24035 -0.14407,-0.79855 0.23342,-0.39963 0.12959,0.17879 0.0636,0.77636 -0.25467,0.44171"
         id="path9862-7" />
      <path
         style="fill:none;stroke:#7a8844;stroke-width:0.4;stroke-linecap:butt;stroke-linejoin:miter;stroke-miterlimit:4;stroke-dasharray:none;stroke-opacity:1"
         d="m 104.17424,196.0932 c 0.5952,-0.51449 -0.56269,-1.49723 -0.30216,-0.38511 0.0143,0.13691 0.34998,0.63159 0.36602,0.21673"
         id="path9864-0" />
      <path
         style="fill:none;stroke:#7a8844;stroke-width:0.4;stroke-linecap:butt;stroke-linejoin:miter;stroke-miterlimit:4;stroke-dasharray:none;stroke-opacity:1"
         d="m 106.75133,195.11141 c -0.40972,-0.0287 -0.74835,-0.9913 -0.14947,-0.47232 0.14032,0.12291 0.26545,0.48721 -0.0509,0.4611"
         id="path9866-7" />
      <path
         style="fill:none;stroke:#7a8844;stroke-width:0.4;stroke-linecap:butt;stroke-linejoin:miter;stroke-miterlimit:4;stroke-dasharray:none;stroke-opacity:1"
         d="m 105.21843,196.11784 c -0.51255,0.21987 0.0232,1.13408 0.23287,0.39886 0.072,-0.34161 -0.28658,-0.68841 -0.45504,-0.20994"
         id="path9868-9" />
      <path
         style="fill:none;stroke:#7a8844;stroke-width:0.4;stroke-linecap:butt;stroke-linejoin:miter;stroke-miterlimit:4;stroke-dasharray:none;stroke-opacity:1"
         d="m 102.32001,195.43354 c -0.69954,-0.19164 -0.52109,1.16762 -0.0119,0.53211 0.28946,-0.3744 0.062,-1.12656 -0.3052,-0.35405"
         id="path9870-5" />
      <path
         style="fill:none;stroke:#7a8844;stroke-width:0.4;stroke-linecap:butt;stroke-linejoin:miter;stroke-miterlimit:4;stroke-dasharray:none;stroke-opacity:1"
         d="m 102.65554,196.0248 c -0.32331,0.20327 -0.39424,1.01104 0.10336,0.6221 0.23332,-0.23387 0.0435,-1.23476 -0.23045,-0.475"
         id="path9872-2" />
      <path
         style="fill:none;stroke:#7a8844;stroke-width:0.4;stroke-linecap:butt;stroke-linejoin:miter;stroke-miterlimit:4;stroke-dasharray:none;stroke-opacity:1"
         d="m 103.46763,196.05919 c -0.49382,0.26676 0.19032,0.834 0.29455,0.23284 0.12075,-0.24428 -0.13862,-0.21884 -0.29455,-0.23284 z"
         id="path10227-8" />
      <path
         style="fill:none;stroke:#7a8844;stroke-width:0.4;stroke-linecap:butt;stroke-linejoin:miter;stroke-miterlimit:4;stroke-dasharray:none;stroke-opacity:1"
         d="m 106.54783,196.01698 c -0.53912,-0.21599 -0.0105,-0.95587 0.32241,-0.42487 0.3734,0.32076 0.045,0.68471 -0.32241,0.42487 z"
         id="path10229-7" />
      <path
         style="fill:none;stroke:#7a8844;stroke-width:0.4;stroke-linecap:butt;stroke-linejoin:miter;stroke-miterlimit:4;stroke-dasharray:none;stroke-opacity:1"
         d="m 103.97321,196.27167 c -0.22764,0.41001 0.29197,0.85631 0.35627,0.25119 0.0299,-0.16703 -0.5389,-0.48427 -0.42007,-0.15656"
         id="path10426-7" />
      <path
         style="fill:none;stroke:#7a8844;stroke-width:0.4;stroke-linecap:butt;stroke-linejoin:miter;stroke-miterlimit:4;stroke-dasharray:none;stroke-opacity:1"
         d="m 105.88163,196.51001 c -0.44605,-0.11176 -0.23169,-1.00506 0.0984,-0.47622 0.16687,0.18176 -0.0566,0.30864 -0.0984,0.47622 z"
         id="path10428-1" />
      <path
         style="fill:none;stroke:#7a8844;stroke-width:0.4;stroke-linecap:butt;stroke-linejoin:miter;stroke-miterlimit:4;stroke-dasharray:none;stroke-opacity:1"
         d="m 104.63901,195.9051 c -0.18433,0.27914 -0.0271,1.02076 0.14087,0.35408 0.14923,-0.2405 0.12095,-0.6386 -0.16248,-0.20662"
         id="path10430-3" />
      <path
         style="fill:none;stroke:#7a8844;stroke-width:0.4;stroke-linecap:butt;stroke-linejoin:miter;stroke-miterlimit:4;stroke-dasharray:none;stroke-opacity:1"
         d="m 109.03939,192.28447 c 0.13087,-0.45203 1.18164,-0.62095 0.83642,0.0293 -0.13078,0.17781 -0.89507,0.25427 -0.70948,-0.13424"
         id="path10432-9" />
      <path
         style="fill:none;stroke:#7a8844;stroke-width:0.4;stroke-linecap:butt;stroke-linejoin:miter;stroke-miterlimit:4;stroke-dasharray:none;stroke-opacity:1"
         d="m 109.01596,192.96936 c 0.17694,-0.58499 1.4844,-0.25679 0.87462,0.25589 -0.18533,0.13547 -1.15849,-0.09 -0.69488,-0.38174"
         id="path10434-7" />
      <path
         style="fill:none;stroke:#7a8844;stroke-width:0.4;stroke-linecap:butt;stroke-linejoin:miter;stroke-miterlimit:4;stroke-dasharray:none;stroke-opacity:1"
         d="m 108.13584,194.32577 c 0.61318,-0.3831 1.07764,0.91951 0.22818,0.60898 -0.30417,-0.0572 -0.47977,-0.36945 -0.22818,-0.60898 z"
         id="path10436-4" />
      <path
         style="fill:none;stroke:#7a8844;stroke-width:0.4;stroke-linecap:butt;stroke-linejoin:miter;stroke-miterlimit:4;stroke-dasharray:none;stroke-opacity:1"
         d="m 108.04564,192.93443 c 0.14942,-0.87331 1.47274,0.13541 0.46955,0.30145 -0.29914,0.051 -0.45453,-0.24347 -0.36771,-0.50139"
         id="path10438-0" />
      <path
         style="fill:none;stroke:#7a8844;stroke-width:0.4;stroke-linecap:butt;stroke-linejoin:miter;stroke-miterlimit:4;stroke-dasharray:none;stroke-opacity:1"
         d="m 108.26503,193.55693 c 0.86662,-0.42281 0.30895,1.09781 -0.0184,0.10381 z"
         id="path10713-0" />
      <path
         style="fill:none;stroke:#7a8844;stroke-width:0.4;stroke-linecap:butt;stroke-linejoin:miter;stroke-miterlimit:4;stroke-dasharray:none;stroke-opacity:1"
         d="m 107.06965,194.56451 c 0.44434,-0.50061 0.69153,0.33547 0.16467,0.34908 -0.12184,-0.0547 -0.23055,-0.21415 -0.16467,-0.34908 z"
         id="path10715-6" />
      <path
         style="fill:none;stroke:#7a8844;stroke-width:0.4;stroke-linecap:butt;stroke-linejoin:miter;stroke-miterlimit:4;stroke-dasharray:none;stroke-opacity:1"
         d="m 109.98371,190.66481 c 0.60445,-0.18061 0.97936,0.3584 0.37225,0.68648 -0.22936,0.16252 -0.88874,0.69552 -0.20451,0.63105 0.56951,-0.0609 0.48137,0.54876 0.029,0.66175 -0.33404,0.31497 0.719,0.46619 0.12609,0.82329 -0.52212,0.31611 -0.0293,0.40795 0.1596,0.64625 -0.28148,0.33367 -0.76037,0.14007 -0.98386,-0.16045"
         id="path10717-2" />
      <path
         style="fill:none;stroke:#7a8844;stroke-width:0.4;stroke-linecap:butt;stroke-linejoin:miter;stroke-miterlimit:4;stroke-dasharray:none;stroke-opacity:1"
         d="m 103.86656,190.43323 c -0.21223,-0.47809 -0.1582,-1.63045 0.62658,-1.16663 0.4455,0.11589 0.0174,0.88581 0.16819,0.2691 0.17289,-0.67405 1.21863,-0.22093 1.00049,0.29243 -0.0486,-0.35392 0.70383,-0.44742 0.64721,0.0674 0.179,0.19061 0.23808,-0.51405 0.59659,-0.21382 0.22145,0.0435 0.2088,0.29026 0.11531,0.44136"
         id="path10719-9" />
      <path
         style="fill:none;stroke:#7a8844;stroke-width:0.4;stroke-linecap:butt;stroke-linejoin:miter;stroke-miterlimit:4;stroke-dasharray:none;stroke-opacity:1"
         d="m 107.58069,190.08758 c 0.40341,-0.44943 1.48524,-0.17758 0.75802,0.42411 0.34177,0.3734 0.0284,0.4454 -0.34816,0.44599"
         id="path10721-3" />
      <path
         style="fill:none;stroke:#7a8844;stroke-width:0.4;stroke-linecap:butt;stroke-linejoin:miter;stroke-miterlimit:4;stroke-dasharray:none;stroke-opacity:1"
         d="m 100.99586,195.81159 c 0.0792,0.61661 0.79831,0.16079 0.9517,0.19234 -0.36858,0.65691 0.23276,0.4841 0.58089,0.16797"
         id="path10723-7" />
      <path
         style="fill:none;stroke:#7a8844;stroke-width:0.4;stroke-linecap:butt;stroke-linejoin:miter;stroke-miterlimit:4;stroke-dasharray:none;stroke-opacity:1"
         d="m 101.60594,194.23635 c -0.18006,0.34047 -0.2004,1.45063 0.40796,0.97831 0.32285,-0.47827 0.26926,0.0331 0.3375,0.29275 0.32298,0.30023 0.62616,-0.49146 0.54225,0.004 -10e-4,0.36337 0.39566,0.32854 0.57398,0.54831"
         id="path10725-2" />
      <path
         style="fill:none;stroke:#7a8844;stroke-width:0.4;stroke-linecap:butt;stroke-linejoin:miter;stroke-miterlimit:4;stroke-dasharray:none;stroke-opacity:1"
         d="m 107.32472,192.79771 c -0.55149,-0.37823 -0.99917,0.71191 -0.31871,0.58689 0.47693,-0.36451 0.0806,-0.69564 -0.2931,-0.86087"
         id="path10727-6" />
      <path
         style="fill:none;stroke:#7a8844;stroke-width:0.4;stroke-linecap:butt;stroke-linejoin:miter;stroke-miterlimit:4;stroke-dasharray:none;stroke-opacity:1"
         d="m 104.59011,194.77737 c -0.72105,0.20301 -0.33093,-0.90225 0.0892,-0.36056 0.0999,0.11829 0.0999,0.63412 -0.15262,0.40249"
         id="path10729-8" />
      <path
         style="fill:none;stroke:#7a8844;stroke-width:0.4;stroke-linecap:butt;stroke-linejoin:miter;stroke-miterlimit:4;stroke-dasharray:none;stroke-opacity:1"
         d="m 108.4785,189.73235 c 0.002,-0.11392 0.0519,-0.18943 0.117,-0.28413 0.20536,-0.2987 0.43259,-0.23308 0.5165,0.10714 0.0294,0.11921 -0.25119,0.35006 -0.22282,0.3786 0.0802,0.0807 0.22565,-0.0717 0.33773,-0.0515 0.0709,0.0128 0.41106,0.20218 0.30482,0.31718 -0.10221,0.11062 -0.33476,0.22803 -0.42293,0.29363"
         id="path11042-0" />
      <path
         style="fill:none;stroke:#7a8844;stroke-width:0.4;stroke-linecap:butt;stroke-linejoin:miter;stroke-miterlimit:4;stroke-dasharray:none;stroke-opacity:1"
         d="m 108.48099,189.00522 c 0.0218,-0.65655 0.9627,-0.0449 0.64235,0.31834"
         id="path11044-5" />
      <path
         style="fill:none;stroke:#7a8844;stroke-width:0.4;stroke-linecap:butt;stroke-linejoin:miter;stroke-miterlimit:4;stroke-dasharray:none;stroke-opacity:1"
         d="m 109.68055,189.86289 c 0.34962,-0.0639 0.65743,0.19793 0.56765,0.571 -0.0312,0.1296 -0.46316,0.0208 -0.38016,0.12515 0.0325,0.0409 0.0771,0.0705 0.11567,0.10577"
         id="path11046-2" />
    </g>
  </g>
</svg>
