<?xml version="1.0" encoding="UTF-8" standalone="no"?>
<!-- Created with Inkscape (http://www.inkscape.org/) -->

<svg
   width="39.471394mm"
   height="39.051376mm"
   viewBox="0 0 39.471394 39.051377"
   version="1.1"
   id="svg3126"
   inkscape:version="1.1.1 (3bf5ae0d25, 2021-09-20)"
   sodipodi:docname="daffodil1.svg"
   xmlns:inkscape="http://www.inkscape.org/namespaces/inkscape"
   xmlns:sodipodi="http://sodipodi.sourceforge.net/DTD/sodipodi-0.dtd"
   xmlns="http://www.w3.org/2000/svg"
   xmlns:svg="http://www.w3.org/2000/svg">
  <sodipodi:namedview
     id="namedview3128"
     pagecolor="#ffffff"
     bordercolor="#666666"
     borderopacity="1.0"
     inkscape:pageshadow="2"
     inkscape:pageopacity="0.0"
     inkscape:pagecheckerboard="0"
     inkscape:document-units="mm"
     showgrid="false"
     inkscape:zoom="2.6547419"
     inkscape:cx="55.560957"
     inkscape:cy="59.327802"
     inkscape:window-width="1920"
     inkscape:window-height="1001"
     inkscape:window-x="-9"
     inkscape:window-y="-9"
     inkscape:window-maximized="1"
     inkscape:current-layer="layer1" />
  <defs
     id="defs3123" />
  <g
     inkscape:label="Шар 1"
     inkscape:groupmode="layer"
     id="layer1"
     transform="translate(-265.45417,-227.50737)">
    <g
       id="g1476"
       transform="matrix(-1,0,0,1,570.37971,0)">
      <path
         style="fill:none;stroke:#7a8844;stroke-width:0.4;stroke-linecap:butt;stroke-linejoin:miter;stroke-miterlimit:4;stroke-dasharray:none;stroke-opacity:1"
         d="m 289.97808,243.90644 c 0.74421,-0.10631 1.51943,0.55664 2.23262,0.31892 0.63852,-0.21282 4.2716,-1.2586 2.87049,-2.1926 -0.62956,-0.41969 -1.97816,0.58567 -2.43195,0.35879 -0.0858,-0.0429 1.2534,-0.82627 1.39539,-0.99664 0.31334,-0.37599 0.23185,-1.60506 0.35882,-2.11288 0.0192,-0.0764 1.13313,-0.40396 1.31564,-0.67771 0.24853,-0.37279 0.51793,-2.43215 0.15947,-2.79059 -0.55974,-0.55971 -1.55899,0.91277 -1.79407,0.67771 -0.36348,-0.36347 0.14447,-1.1737 -0.0399,-1.63448 -0.3217,-0.8042 -0.75981,-0.44083 -1.19605,-0.87705 -0.21073,-0.21072 -0.0957,-1.01266 -0.43855,-1.35543 -0.0721,-0.0721 -2.03622,2.45635 -2.87049,2.35207 -1.52143,-0.19016 -1.20207,-3.63379 -1.9137,-4.34535 -0.97415,-0.97411 -1.64686,2.64647 -1.71432,2.51153 -0.54515,-1.09023 -2.67116,-1.42962 -2.67116,-2.87032 0,-0.77416 -1.44783,0.7826 -1.79407,1.47503 -1.48995,2.97972 -0.70924,0.16683 -1.6346,1.55476 -0.39018,0.58524 0.91334,1.67963 -0.0399,2.11287 -1.01568,0.46165 -1.99718,-0.8016 -2.43197,-1.47502 -1.05162,-0.0584 -1.60714,1.12734 -1.95354,1.99328 -0.19355,0.48386 1.03947,1.47502 0.5183,1.47502 -0.45699,0 -0.57536,-0.86643 -1.23592,-0.67772 -0.96662,0.27616 0,0.8745 0,1.19597 0,0.25057 -1.56199,1.06503 -1.71432,1.67436 -0.47159,1.88619 2.87049,2.74535 2.87049,2.11287 0,-0.42327 -3.62802,0.75744 -1.71432,2.671 0.25021,0.2502 0.24415,0.87704 0.59801,0.87704 0.15849,0 1.36528,-2.8455 1.95354,-2.5514 0.26104,0.13051 -2.19951,2.39394 -1.19603,4.06629 0.44234,0.7372 1.62076,-1.10404 2.03326,-0.27906 0.27888,0.55772 -1.3451,2.32083 -1.55485,2.95006 -0.57148,1.71434 1.419,1.24318 1.7542,1.91354 0.0743,0.14856 0.37715,1.19597 0.55816,1.19597 0.64792,0 0.42244,-1.25638 0.83723,-1.75409 0.56337,-0.676 1.75042,-0.31358 2.55155,-0.67771"
         id="path2738" />
      <path
         style="fill:none;stroke:#7a8844;stroke-width:0.4;stroke-linecap:butt;stroke-linejoin:miter;stroke-miterlimit:4;stroke-dasharray:none;stroke-opacity:1"
         d="m 278.77511,251.75996 c -0.30708,5.43135 2.09307,1.37532 2.31236,1.59462 0.13963,0.13962 -0.84475,1.94589 -0.51829,2.27234 1.28612,1.28602 3.38694,-1.39529 2.55157,-1.39529 -0.63136,0 1.00325,0.95677 1.6346,0.95677 0.3974,0 1.09903,-3.24284 0.79737,-3.9467"
         id="path2740" />
      <path
         style="fill:none;stroke:#7a8844;stroke-width:0.4;stroke-linecap:butt;stroke-linejoin:miter;stroke-miterlimit:4;stroke-dasharray:none;stroke-opacity:1"
         d="m 285.55272,251.2417 c 0.11117,1.02524 0.10107,1.28637 0.87709,1.67436 2.96562,1.48271 1.05851,-1.72931 2.23262,-2.23247 1.0174,-0.436 1.78114,0.33465 2.67118,-0.19933 0.50413,-0.30247 -0.12651,-3.2335 -1.43527,-1.79395"
         id="path2742" />
      <path
         style="fill:none;stroke:#7a8844;stroke-width:0.4;stroke-linecap:butt;stroke-linejoin:miter;stroke-miterlimit:4;stroke-dasharray:none;stroke-opacity:1"
         d="m 287.62584,249.76668 c 0.82837,0.16566 0.83347,0.29029 1.67448,-0.0797 0.37683,-0.16579 0.0658,-1.22035 0.47841,-1.31556 0.23558,-0.0543 1.38733,-0.0555 1.51499,-0.43852 0.0328,-0.0983 0.53908,-1.42477 0.43855,-1.47502 -0.73239,-0.36617 -2.63574,0.0399 -2.51169,0.0399 3.3948,0 1.85181,-2.09087 1.31566,-1.55475 -0.30028,0.30024 1.33032,-0.0357 1.19603,-0.43852 -0.29928,-0.89779 -1.46377,-0.64639 -1.75419,-0.59798"
         id="path2744" />
      <path
         style="fill:none;stroke:#7a8844;stroke-width:0.4;stroke-linecap:butt;stroke-linejoin:miter;stroke-miterlimit:4;stroke-dasharray:none;stroke-opacity:1"
         d="m 294.16424,240.11921 c 1.57741,-3.00185 5.52141,-1.66218 7.69454,0.2392 0.325,0.28434 2.10199,1.78956 2.88095,1.63698 0.14117,-0.0277 -0.0314,0.35142 -0.13003,0.51576 -0.73308,1.22171 -0.24985,2.85173 -0.91697,4.18588 -1.28596,2.57172 -6.39851,3.55562 -8.61154,4.06629"
         id="path2746"
         sodipodi:nodetypes="ccscsc" />
      <path
         style="fill:none;stroke:#7a8844;stroke-width:0.4;stroke-linecap:butt;stroke-linejoin:miter;stroke-miterlimit:4;stroke-dasharray:none;stroke-opacity:1"
         d="m 291.17412,248.77004 c 0.94045,1.85327 4.2721,1.43711 5.34234,3.14938 1.21413,1.9425 -0.68608,1.48995 -0.19934,2.95005 0.21052,0.63156 1.5513,4.06986 0.95682,4.66428 -0.34776,0.34773 -2.1212,0.0838 -2.67116,0.35878 -4.93087,2.46528 -8.40314,-0.76115 -9.52849,-5.26225"
         id="path2748" />
      <path
         style="fill:none;stroke:#7a8844;stroke-width:0.4;stroke-linecap:butt;stroke-linejoin:miter;stroke-miterlimit:4;stroke-dasharray:none;stroke-opacity:1"
         d="m 287.98467,231.62784 c 0.63473,-0.22153 1.28217,-0.84356 1.79406,-1.35543 0.59306,-0.593 1.62112,-0.75715 2.07315,-1.43516 0.22177,-0.33262 0.43855,-1.51599 0.43855,-1.11623 0,2.531 3.49993,5.44091 1.7542,7.57446"
         id="path2750" />
      <path
         style="fill:none;stroke:#7a8844;stroke-width:0.4;stroke-linecap:butt;stroke-linejoin:miter;stroke-miterlimit:4;stroke-dasharray:none;stroke-opacity:1"
         d="m 279.65223,234.53803 c -1.94088,0.0691 -2.35129,-2.33847 -3.82736,-2.83046 -0.42808,-0.14268 -1.21709,0.73864 -1.47511,0.99665 -0.37456,0.37453 -0.90829,-0.20801 -0.95685,-0.15947 -0.25306,0.25305 0.0178,0.86062 -0.15945,1.15611 -0.21818,0.36356 -1.04793,0.0369 -1.3954,0.55811 -1.43025,2.14524 -0.55024,7.33527 2.11302,7.33527"
         id="path2752" />
      <path
         style="fill:none;stroke:#7a8844;stroke-width:0.4;stroke-linecap:butt;stroke-linejoin:miter;stroke-miterlimit:4;stroke-dasharray:none;stroke-opacity:1"
         d="m 273.47265,243.26859 c -3.17749,-0.18809 -5.58651,2.19427 -7.85403,2.95006 -0.40765,0.13586 3.21507,4.22517 3.54827,4.42507 2.6648,1.59877 6.40363,5.01529 9.53006,2.51432"
         id="path2754"
         sodipodi:nodetypes="cccc" />
      <path
         style="fill:none;stroke:#7a8844;stroke-width:0.4;stroke-linecap:butt;stroke-linejoin:miter;stroke-miterlimit:4;stroke-dasharray:none;stroke-opacity:1"
         d="m 275.18698,253.93897 c -0.22034,1.45128 -1.37871,2.48823 -1.59472,4.00015 -0.22819,1.59726 0.48131,3.67197 1.35552,4.9832 0.58666,0.87992 0.12333,2.29487 1.11631,2.98991 2.32784,1.6294 8.3659,-1.04732 10.24611,-2.55139 0.80995,-0.64791 0.50072,-3.8838 0.71763,-4.82374"
         id="path2756"
         sodipodi:nodetypes="ccscsc" />
      <path
         style="fill:none;stroke:#7a8844;stroke-width:0.2;stroke-linecap:butt;stroke-linejoin:miter;stroke-miterlimit:4;stroke-dasharray:none;stroke-opacity:1"
         d="m 282.74201,245.44126 c 0.96356,-4.08564 -1.81037,-5.08946 -3.329,-7.87345"
         id="path2932" />
      <path
         style="fill:none;stroke:#7a8844;stroke-width:0.2;stroke-linecap:butt;stroke-linejoin:miter;stroke-miterlimit:4;stroke-dasharray:none;stroke-opacity:1"
         d="m 284.21712,244.84328 c 0.21973,-4.13489 3.60807,-8.0788 3.60807,-12.25866"
         id="path2934" />
      <path
         style="fill:none;stroke:#7a8844;stroke-width:0.2;stroke-linecap:butt;stroke-linejoin:miter;stroke-miterlimit:4;stroke-dasharray:none;stroke-opacity:1"
         d="m 286.9481,245.14227 c 0.29652,-3.74071 4.60176,-5.36609 6.13969,-8.3319"
         id="path2936" />
      <path
         style="fill:none;stroke:#7a8844;stroke-width:0.2;stroke-linecap:butt;stroke-linejoin:miter;stroke-miterlimit:4;stroke-dasharray:none;stroke-opacity:1"
         d="m 292.17082,247.17542 c 3.53267,-0.61771 9.16827,-0.90159 11.44217,-4.18589"
         id="path2938" />
      <path
         style="fill:none;stroke:#7a8844;stroke-width:0.2;stroke-linecap:butt;stroke-linejoin:miter;stroke-miterlimit:4;stroke-dasharray:none;stroke-opacity:1"
         d="m 292.44991,244.86321 c 2.85295,-2.0663 6.84327,-1.85828 9.96704,-2.75072"
         id="path2940" />
      <path
         style="fill:none;stroke:#7a8844;stroke-width:0.2;stroke-linecap:butt;stroke-linejoin:miter;stroke-miterlimit:4;stroke-dasharray:none;stroke-opacity:1"
         d="m 289.30032,251.83969 c 2.68729,2.02256 5.89192,4.98507 7.77429,7.49472"
         id="path2942" />
      <path
         style="fill:none;stroke:#7a8844;stroke-width:0.2;stroke-linecap:butt;stroke-linejoin:miter;stroke-miterlimit:4;stroke-dasharray:none;stroke-opacity:1"
         d="m 291.4532,250.84305 c 1.66003,0.80019 2.93747,2.20978 3.62799,3.86696"
         id="path2944" />
      <path
         style="fill:none;stroke:#7a8844;stroke-width:0.2;stroke-linecap:butt;stroke-linejoin:miter;stroke-miterlimit:4;stroke-dasharray:none;stroke-opacity:1"
         d="m 282.32339,256.06544 c -1.41013,2.91368 -4.95206,6.04084 -5.22272,9.28867"
         id="path2946" />
      <path
         style="fill:none;stroke:#7a8844;stroke-width:0.2;stroke-linecap:butt;stroke-linejoin:miter;stroke-miterlimit:4;stroke-dasharray:none;stroke-opacity:1"
         d="m 284.35667,255.58705 c -0.56332,2.71518 -2.81463,6.89266 -3.98682,8.65083"
         id="path2948" />
      <path
         style="fill:none;stroke:#7a8844;stroke-width:0.2;stroke-linecap:butt;stroke-linejoin:miter;stroke-miterlimit:4;stroke-dasharray:none;stroke-opacity:1"
         d="m 278.92905,255.07004 c -1.62013,2.06382 -3.38183,4.5886 -3.78194,6.85564"
         id="path2950"
         sodipodi:nodetypes="cc" />
      <path
         style="fill:none;stroke:#7a8844;stroke-width:0.2;stroke-linecap:butt;stroke-linejoin:miter;stroke-miterlimit:4;stroke-dasharray:none;stroke-opacity:1"
         d="m 275.32333,246.88971 c -2.86033,0.24535 -5.65164,0.0389 -8.38905,-0.35214"
         id="path2952"
         sodipodi:nodetypes="cc" />
      <path
         style="fill:none;stroke:#7a8844;stroke-width:0.2;stroke-linecap:butt;stroke-linejoin:miter;stroke-miterlimit:4;stroke-dasharray:none;stroke-opacity:1"
         d="m 275.82487,249.1687 c -2.55773,0.006 -5.3635,-0.23688 -7.69456,-1.23584"
         id="path2956" />
      <path
         style="fill:none;stroke:#7a8844;stroke-width:0.2;stroke-linecap:butt;stroke-linejoin:miter;stroke-miterlimit:4;stroke-dasharray:none;stroke-opacity:1"
         d="m 276.38303,251.08225 c -0.95796,0.2323 -2.78803,0.63784 -3.54826,0.63784"
         id="path2958" />
      <path
         style="fill:none;stroke:#7a8844;stroke-width:0.4;stroke-linecap:butt;stroke-linejoin:miter;stroke-miterlimit:4;stroke-dasharray:none;stroke-opacity:1"
         d="m 285.47074,250.7474 c 0.0864,-0.72273 0.8816,-5.97738 0.46504,-6.39393 -0.47625,-0.47623 -0.659,1.41369 -0.5979,1.62755 0.0982,0.34351 0.36001,0.36106 0.49825,0.61448"
         id="path5038" />
      <path
         style="fill:none;stroke:#7a8844;stroke-width:0.4;stroke-linecap:butt;stroke-linejoin:miter;stroke-miterlimit:4;stroke-dasharray:none;stroke-opacity:1"
         d="m 285.47074,250.7474 c 0.56082,-0.27041 0.73594,-0.71819 0.88024,-1.29539 0.0667,-0.26697 0.2382,-4.10951 0.36538,-4.1519 0.38207,-0.12736 0.10596,1.60717 -0.2159,1.89326"
         id="path5040" />
      <path
         style="fill:none;stroke:#7a8844;stroke-width:0.4;stroke-linecap:butt;stroke-linejoin:miter;stroke-miterlimit:4;stroke-dasharray:none;stroke-opacity:1"
         d="m 285.47074,250.7474 c -0.38994,-0.47658 -0.11227,-0.0786 -0.36538,-1.27878 -0.20998,-0.99569 -0.43995,-1.94961 -0.53146,-2.95616 -0.0274,-0.30191 0.27518,-1.57185 0.11626,-1.81023 -0.69529,-1.04289 -0.49472,1.5189 -0.0664,2.25863"
         id="path5042" />
      <path
         style="fill:none;stroke:#7a8844;stroke-width:0.4;stroke-linecap:butt;stroke-linejoin:miter;stroke-miterlimit:4;stroke-dasharray:none;stroke-opacity:1"
         d="m 285.22162,251.01312 c -0.34436,-0.79602 -0.50044,-1.64107 -0.71416,-2.47453 -0.10676,-0.41639 -0.24542,-0.81557 -0.34877,-1.22897 -0.17978,-0.71909 -0.10233,-1.57772 -1.0131,-1.57772 -0.14914,0 -0.24251,-0.0364 -0.28234,0.14947 -0.11506,0.53692 0.85311,2.16365 1.27884,1.49468"
         id="path5044" />
      <path
         style="fill:none;stroke:#7a8844;stroke-width:0.4;stroke-linecap:butt;stroke-linejoin:miter;stroke-miterlimit:4;stroke-dasharray:none;stroke-opacity:1"
         d="m 284.90606,250.84705 c -2.16703,-0.25609 -1.02202,-3.47694 -2.35837,-4.36781 -0.24874,-0.16582 -0.18278,1.45975 0.69755,2.07596"
         id="path5046" />
      <path
         style="fill:none;stroke:#7a8844;stroke-width:0.4;stroke-linecap:butt;stroke-linejoin:miter;stroke-miterlimit:4;stroke-dasharray:none;stroke-opacity:1"
         d="m 285.22162,251.01312 c 0.49168,-0.49166 0.16256,-0.0683 -0.14947,-1.49468 -0.1546,-0.7067 -0.1634,-0.76942 -0.18269,-1.44487 -0.01,-0.34955 0.0354,-0.7219 -0.0498,-1.06288 -0.094,-0.37598 0.9021,-0.22816 0.49825,0.71412 -0.12461,0.29075 -0.15055,0.3371 -0.3986,0.29894"
         id="path5048" />
      <path
         style="fill:none;stroke:#7a8844;stroke-width:0.4;stroke-linecap:butt;stroke-linejoin:miter;stroke-miterlimit:4;stroke-dasharray:none;stroke-opacity:1"
         d="m 282.01254,247.12072 c 0.65224,5.59848 5.82493,4.70971 5.82493,-0.65762"
         id="path5243" />
      <path
         style="fill:none;stroke:#7a8844;stroke-width:0.2;stroke-linecap:butt;stroke-linejoin:miter;stroke-miterlimit:4;stroke-dasharray:none;stroke-opacity:1"
         d="m 287.14818,253.48766 c 1.85033,2.18504 4.93456,4.02142 7.34085,5.11514"
         id="path1093" />
    </g>
    <path
       style="fill:none;stroke:#7a8844;stroke-width:0.2;stroke-linecap:butt;stroke-linejoin:miter;stroke-miterlimit:4;stroke-dasharray:none;stroke-opacity:1"
       d="m 285.01757,246.1197 c 1.10796,-3.8246 -2.38767,-5.92265 -3.23909,-9.04454"
       id="path1547" />
    <path
       style="fill:none;stroke:#7a8844;stroke-width:0.2;stroke-linecap:butt;stroke-linejoin:miter;stroke-miterlimit:4;stroke-dasharray:none;stroke-opacity:1"
       d="m 283.87925,247.19337 c -0.3063,-3.38098 -3.86753,-3.99449 -5.61394,-6.03197"
       id="path1549" />
    <path
       style="fill:none;stroke:#7a8844;stroke-width:0.2;stroke-linecap:butt;stroke-linejoin:miter;stroke-miterlimit:4;stroke-dasharray:none;stroke-opacity:1"
       d="m 287.55901,247.26584 c 0.64797,-3.23492 1.08902,-5.89713 4.55965,-7.00142"
       id="path1551" />
    <path
       style="fill:none;stroke:#7a8844;stroke-width:0.2;stroke-linecap:butt;stroke-linejoin:miter;stroke-miterlimit:4;stroke-dasharray:none;stroke-opacity:1"
       d="m 287.80817,248.03824 c 1.15646,-1.02852 2.1946,-2.50959 3.31385,-3.563"
       id="path1553" />
    <path
       style="fill:none;stroke:#7a8844;stroke-width:0.2;stroke-linecap:butt;stroke-linejoin:miter;stroke-miterlimit:4;stroke-dasharray:none;stroke-opacity:1"
       d="m 286.11388,246.1197 c 0.69019,-3.75748 -1.41631,-7.45018 -0.42357,-11.1375"
       id="path1555" />
  </g>
</svg>
