<?xml version="1.0" encoding="UTF-8" standalone="no"?>
<!-- Created with Inkscape (http://www.inkscape.org/) -->

<svg
   width="69.963844mm"
   height="65.07431mm"
   viewBox="0 0 69.963844 65.07431"
   version="1.1"
   id="svg959"
   inkscape:version="1.1.1 (3bf5ae0d25, 2021-09-20)"
   sodipodi:docname="flower2.svg"
   xmlns:inkscape="http://www.inkscape.org/namespaces/inkscape"
   xmlns:sodipodi="http://sodipodi.sourceforge.net/DTD/sodipodi-0.dtd"
   xmlns="http://www.w3.org/2000/svg"
   xmlns:svg="http://www.w3.org/2000/svg">
  <sodipodi:namedview
     id="namedview961"
     pagecolor="#ffffff"
     bordercolor="#666666"
     borderopacity="1.0"
     inkscape:pageshadow="2"
     inkscape:pageopacity="0.0"
     inkscape:pagecheckerboard="0"
     inkscape:document-units="mm"
     showgrid="false"
     inkscape:zoom="0.66368547"
     inkscape:cx="-256.8988"
     inkscape:cy="33.901601"
     inkscape:window-width="1920"
     inkscape:window-height="1001"
     inkscape:window-x="-9"
     inkscape:window-y="-9"
     inkscape:window-maximized="1"
     inkscape:current-layer="layer1" />
  <defs
     id="defs956" />
  <g
     inkscape:label="Шар 1"
     inkscape:groupmode="layer"
     id="layer1"
     transform="translate(-173.11741,-139.68289)">
    <path
       fill-rule="nonzero"
       fill="#1a1a1a"
       fill-opacity="1"
       d="m 210.39919,139.68338 c -1.88309,-0.0114 -2.57865,0.17363 -3.43855,0.91467 -1.59473,1.3746 -1.72289,1.42317 -3.84369,1.43144 -1.80144,0.006 -1.99988,0.0403 -2.70888,0.45785 -1.0542,0.62219 -1.39526,1.03767 -1.89239,2.30167 -0.46199,1.17512 -0.63045,2.15077 -0.6873,3.96358 -0.063,2.05053 -0.0889,2.2655 -0.26148,2.15904 -0.092,-0.0568 -0.16743,-0.22944 -0.16743,-0.3824 0,-0.15296 -0.1571,-0.77515 -0.3483,-1.38183 -0.44545,-1.40973 -1.83761,-3.10265 -3.26078,-3.96461 -0.91468,-0.55398 -1.13895,-0.61392 -2.51355,-0.68006 -1.9358,-0.092 -2.34507,0.13435 -3.13365,1.73116 -0.30593,0.62114 -0.81649,1.38286 -1.13379,1.69395 l -0.57774,0.5643 -2.35851,-0.0465 c -2.21588,-0.0424 -2.39572,-0.0217 -2.9869,0.34313 -1.33222,0.82372 -2.10426,2.22725 -2.71818,4.93923 -0.33899,1.49862 -0.24908,5.47357 0.13746,6.06268 0.15503,0.23771 0.23358,0.43098 0.17467,0.43098 -0.0589,0 0.0155,0.18604 0.16433,0.41341 0.3669,0.56018 0.3514,0.59325 -0.27492,0.59221 -0.75551,-0.002 -2.16317,0.51573 -2.51251,0.92191 -0.1602,0.185 -0.3638,0.42375 -0.45165,0.52917 -0.35967,0.42788 -0.6842,1.48725 -0.68006,2.21899 0.005,1.0945 0.62632,2.72851 1.86552,4.90409 0.58601,1.02939 1.19786,2.1053 1.36012,2.39158 0.39894,0.709 0.36897,1.17512 -0.13436,2.03295 -0.28318,0.48473 -0.77721,0.95085 -1.46761,1.38803 -2.09289,1.32602 -2.97243,2.37712 -3.30832,3.95531 -0.26252,1.23094 -0.0878,3.44373 0.35243,4.47106 0.45682,1.06865 0.42271,1.01594 1.33635,2.05155 0.87023,0.98703 2.17765,1.66087 5.1077,2.63136 1.96991,0.6532 3.57498,0.86402 4.82141,0.63458 0.5302,-0.0961 0.99839,-0.14055 1.0418,-0.0971 0.0434,0.0424 -0.29662,0.82992 -0.75448,1.74871 -0.65215,1.30535 -0.83509,1.85311 -0.84542,2.50838 -0.0145,1.03458 0.14779,1.75493 0.47852,2.13527 0.3545,0.40722 1.7446,0.89503 3.22668,1.13173 2.40088,0.38343 2.72128,0.59322 3.69383,2.41638 0.28835,0.54052 0.61391,1.10173 0.7214,1.24437 0.38447,0.5085 2.87011,2.88559 3.01687,2.88559 0.0816,0 0.38654,0.10957 0.678,0.24289 1.54719,0.71107 2.89181,1.00976 4.55372,1.01285 1.48828,0.003 1.79111,-0.0506 2.68408,-0.46715 2.03502,-0.9498 3.48712,-2.92592 4.02352,-5.47666 0.25942,-1.23198 0.42168,-1.66812 0.42168,-1.13173 0,0.38656 0.75758,2.05468 1.38596,3.05099 0.52607,0.83508 2.20659,2.60035 2.47531,2.60035 0.0775,0 0.24081,0.0951 0.36277,0.21085 0.25838,0.24598 1.60817,0.85267 2.56935,1.15549 0.39067,0.12401 1.5844,0.216 2.8515,0.22013 l 2.18075,0.008 1.25884,-0.63254 c 0.69143,-0.34726 1.41386,-0.7617 1.60506,-0.92188 0.69764,-0.585 1.3932,-1.67225 1.96061,-3.06237 1.01079,-2.4815 1.20303,-2.8484 1.54822,-2.95897 0.33073,-0.10647 1.52756,-0.092 2.51768,0.031 1.202,0.14882 4.11034,-0.50848 4.11034,-0.92914 0,-0.0909 0.0651,-0.14677 0.1447,-0.12298 0.23978,0.0692 1.34875,-1.22888 2.04742,-2.39882 1.12654,-1.88412 1.33945,-3.23702 0.81752,-5.19245 -0.20154,-0.75242 -0.19844,-0.8382 0.0279,-0.8382 0.28733,0 4.98885,-2.38331 5.31338,-2.69441 1.50998,-1.44486 2.14457,-2.67062 2.10323,-4.05556 -0.0341,-1.11828 -0.57464,-2.43706 -1.37253,-3.34553 -0.50746,-0.57775 -1.13585,-1.81591 -1.64331,-3.23805 -0.1974,-0.55294 -0.20257,-0.79272 -0.0279,-1.38389 0.11575,-0.39275 0.26148,-0.71417 0.32246,-0.71417 0.093,0 0.29352,-0.45579 0.3793,-0.86196 0.0124,-0.06 0.23461,-0.43099 0.49299,-0.82476 0.55398,-0.84646 0.94362,-2.36161 0.84336,-3.28042 -0.0537,-0.50023 -0.25528,-0.84233 -0.85989,-1.46244 -1.02526,-1.05317 -1.62884,-1.48002 -2.27583,-1.61231 -0.65629,-0.13436 -0.66043,-0.33073 -0.0227,-1.0418 0.92398,-1.03249 1.32292,-2.25619 1.22576,-3.77031 -0.0517,-0.81339 -0.15709,-1.16892 -0.42994,-1.45107 -0.19844,-0.20464 -0.81752,-0.84439 -1.3746,-1.4211 -0.5581,-0.57671 -1.02112,-1.14309 -1.03146,-1.25781 -0.009,-0.11575 -0.0362,-0.42995 -0.0599,-0.69763 -0.0238,-0.26872 0.062,-0.83406 0.18914,-1.25574 0.42064,-1.3994 0.45475,-1.603 0.44441,-2.73368 -0.007,-0.92191 -0.10542,-1.31051 -0.54984,-2.18075 -0.29765,-0.58187 -0.8754,-1.36425 -1.28467,-1.73839 -1.80248,-1.64745 -5.2679,-2.87838 -7.61091,-2.70268 -1.53375,0.11472 -4.65708,0.5426 -5.11803,0.70177 -0.70797,0.24391 -1.76113,0.84232 -1.76733,1.00355 -0.006,0.19327 -0.58602,0.92294 -0.73381,0.92294 -0.0548,0 -0.0992,-0.11679 -0.0992,-0.25838 0,-0.80512 -1.47174,-2.8112 -3.16466,-4.31291 -1.59784,-1.41904 -4.43281,-2.36161 -7.15099,-2.37919 z m 0.3421,1.2485 c 1.23817,0 3.63595,0.58912 4.7656,1.17306 0.48162,0.25011 1.7756,1.44797 2.96623,2.74918 0.84749,0.92605 1.28364,3.14813 0.9002,4.5837 -0.30592,1.14515 -1.9637,4.72323 -3.28559,7.09311 -0.12919,0.23151 -0.66249,1.21233 -1.18545,2.18075 -0.52297,0.96944 -1.24127,2.19314 -1.59784,2.72128 -0.35657,0.52813 -0.8847,1.39629 -1.17512,1.9296 -0.29042,0.53226 -0.58084,1.00665 -0.64596,1.05316 -0.19017,0.13436 -1.0759,1.97921 -1.66915,3.47989 -0.50746,1.28158 -0.87333,1.68775 -1.05626,1.17409 -0.0971,-0.27285 0.36587,-1.49758 0.65629,-1.73529 0.12196,-0.10129 0.185,-0.22428 0.13643,-0.27286 -0.0992,-0.0982 0.24494,-1.04489 0.93017,-2.56211 0.25011,-0.55398 0.57568,-1.27434 0.72244,-1.60094 0.14779,-0.32659 0.36483,-0.95395 0.48162,-1.3932 0.23565,-0.8785 0.0724,-1.16272 -0.61495,-1.07486 -0.37,0.0475 -0.59944,0.47025 -1.68155,3.11092 -0.38964,0.94878 -0.76378,1.7787 -0.83302,1.84484 -0.0693,0.0661 -0.0868,-0.65009 -0.0403,-1.5906 0.0568,-1.14618 0.006,-2.08669 -0.15503,-2.8515 -0.13126,-0.62839 -0.30696,-1.50172 -0.39068,-1.94097 -0.12815,-0.67799 -0.71003,-1.80144 -0.93224,-1.80144 -0.0382,0 -0.185,0.22634 -0.32866,0.5023 -0.26975,0.52296 -0.24494,0.82475 0.27079,3.3569 0.18913,0.92397 0.10748,5.44152 -0.12093,6.751 -0.13332,0.76068 -0.53536,0.8382 -0.67696,0.13023 -0.0558,-0.27802 -0.23771,-0.54157 -0.41238,-0.59738 -0.1726,-0.0548 -0.59738,-0.44958 -0.94464,-0.8785 -0.34727,-0.42891 -0.74518,-0.89504 -0.88367,-1.03766 -0.43718,-0.44959 -1.75803,-2.22416 -2.62516,-3.5295 -1.12035,-1.68465 -1.61231,-2.96416 -1.66915,-4.33875 -0.0248,-0.61185 -0.2005,-1.67846 -0.38861,-2.37092 -0.38654,-1.41697 -0.524,-3.10989 -0.33279,-4.10931 0.0703,-0.36897 0.17776,-1.53892 0.23874,-2.60036 0.062,-1.09347 0.21188,-2.1394 0.34623,-2.41639 0.13023,-0.26768 0.23668,-0.57671 0.23668,-0.68729 0,-0.11059 0.23151,-0.51987 0.5147,-0.90951 0.71313,-0.98598 1.38699,-1.2299 3.1626,-1.14722 1.85931,0.0858 2.64686,-0.15709 3.93567,-1.21439 1.18753,-0.97462 1.75287,-1.17099 3.38171,-1.17306 z m 18.42265,4.36046 c 1.39216,0 3.60184,0.62942 4.6271,1.31775 0.91571,0.61495 2.26447,2.24379 2.49081,3.00653 0.21084,0.71314 0.12299,1.80454 -0.23048,2.85668 -0.3514,1.04696 -0.43615,2.84737 -0.15813,3.3755 0.12506,0.23668 0.58188,0.76998 1.01493,1.18546 1.73116,1.65881 2.06292,2.53628 1.52445,4.04213 -0.71933,2.01228 -2.73471,3.18327 -7.06623,4.10518 -1.01493,0.216 -2.37299,0.5457 -3.01894,0.73277 -1.31258,0.37827 -2.70474,0.7183 -4.16615,1.01596 -1.21543,0.24804 -4.10931,1.20095 -7.40834,2.43912 -3.31246,1.24437 -4.26744,1.57923 -4.74699,1.66605 -0.21911,0.0403 -0.49506,0.15296 -0.61392,0.25115 -0.16226,0.13436 -0.28525,0.0744 -0.48886,-0.23668 -0.14986,-0.22944 -0.27285,-0.44855 -0.27285,-0.48886 0,-0.0992 0.79995,-0.74104 2.68407,-2.15387 0.87644,-0.65629 1.61851,-1.25781 1.64951,-1.33532 0.031,-0.0775 0.12713,-0.14056 0.21395,-0.14056 0.0868,0 0.71003,-0.43408 1.38389,-0.96428 1.15548,-0.90848 1.59163,-1.23817 2.35748,-1.77974 0.19844,-0.14056 0.28009,-0.33176 0.21394,-0.50229 -0.29662,-0.77412 -1.5875,-0.0455 -6.45025,3.63595 -0.709,0.53743 -1.31362,0.90537 -1.34256,0.81752 -0.0527,-0.1571 1.07281,-2.6479 1.34152,-2.96829 0.26355,-0.31523 1.30328,-2.13734 1.30328,-2.28514 0,-0.0806 0.0755,-0.14676 0.16744,-0.14676 0.093,0 0.16846,-0.0785 0.16846,-0.17363 0,-0.0951 0.43408,-0.79272 0.96428,-1.54926 0.5302,-0.75758 0.94051,-1.3994 0.91157,-1.42627 -0.0568,-0.0537 1.99161,-4.26227 2.14148,-4.39973 0.0506,-0.0465 0.26148,-0.42375 0.46818,-0.83819 0.20774,-0.41548 0.44752,-0.86817 0.53331,-1.00666 0.20257,-0.32556 0.40824,-0.8909 0.37827,-1.0387 -0.0124,-0.063 0.19327,-0.55397 0.45682,-1.09037 0.26458,-0.5364 0.53226,-1.21543 0.59531,-1.50895 0.0796,-0.3731 0.22324,-0.55087 0.47439,-0.58808 0.24598,-0.0351 0.39481,-0.21187 0.46715,-0.555 0.22945,-1.07694 1.32395,-2.36678 2.25413,-2.65514 0.6997,-0.21807 4.04936,-0.61598 5.17798,-0.61598 z m -37.7579,0.50333 c 1.29708,0 1.97093,0.41031 3.11712,1.89859 1.17099,1.51825 1.92443,3.63285 2.41949,6.64972 0.31109,1.90066 0.30489,3.06442 1.3901,5.21002 0.54466,1.07797 1.31671,3.08405 1.85311,3.39928 0.12403,0.0734 0.46406,0.48782 0.75654,0.92294 0.29249,0.43511 0.88471,1.20613 1.31465,1.71256 1.4149,1.66811 1.2454,1.7756 -0.3576,0.22737 -1.46657,-1.41696 -2.26343,-2.30684 -2.76779,-3.09232 -0.79065,-1.23093 -1.56476,-2.07532 -3.48609,-3.80235 -1.00872,-0.90537 -1.09451,-0.94464 -1.71566,-0.77825 -0.53847,0.1447 -0.60668,0.53744 -0.16639,0.95499 2.82463,2.68717 3.24941,3.14399 4.16821,4.48344 0.74932,1.09141 3.82716,4.35633 4.10725,4.35633 0.15296,0 0.97978,0.93431 1.28054,1.44694 0.0765,0.13125 0.0424,0.32556 -0.0806,0.45682 -0.1788,0.1912 -0.39585,0.0879 -1.31052,-0.62736 -1.49035,-1.16478 -1.98954,-1.50791 -2.79363,-1.91823 -0.37723,-0.19223 -1.2299,-0.84852 -1.89342,-1.45727 -0.95601,-0.87747 -1.30121,-1.09761 -1.65571,-1.05627 -0.26459,0.031 -0.47129,0.17054 -0.50333,0.3421 -0.0806,0.42478 1.34462,1.76733 2.90318,2.73368 1.54099,0.95602 3.27628,2.22726 4.06797,2.98174 0.45062,0.42787 0.5457,0.64388 0.5457,1.24023 0,0.81235 -0.092,0.85059 -0.97152,0.41031 -0.34209,-0.17157 -0.82992,-0.36174 -2.40192,-1.13791 -1.57199,-0.77515 -2.24585,-1.17926 -3.67212,-2.24586 -1.12655,-0.84233 -2.66754,-1.84072 -2.84117,-1.84072 -0.0713,0 -0.35347,-0.2067 -0.62839,-0.46095 -0.50539,-0.46612 -0.43925,-0.26252 -1.9637,-1.03766 -0.46096,-0.23462 -2.03192,-0.6718 -2.4598,-0.97255 -2.96623,-1.05627 -4.08864,-1.97715 -5.69268,-3.06648 -0.59738,-0.004 -0.71003,-0.11266 -1.42007,-1.39217 l -0.63458,-1.14205 -0.0548,-2.2965 c -0.0475,-2.01021 -0.003,-2.497 0.36174,-3.92017 0.3638,-1.41594 0.51056,-1.72393 1.13791,-2.38745 0.79685,-0.84336 0.74104,-0.83199 3.84163,-0.77101 0.7183,0.0134 1.55752,-0.0579 1.86552,-0.15917 0.51263,-0.1695 1.7787,-1.36219 1.7787,-1.67638 0,-0.0734 0.11265,-0.22738 0.25115,-0.3421 0.13849,-0.11575 0.25218,-0.35657 0.25218,-0.53743 0,-0.17984 0.22014,-0.54777 0.48989,-0.81753 0.44028,-0.44028 0.60048,-0.49092 1.5689,-0.49092 z m -12.72688,16.87029 c 1.15239,0.0878 1.82832,0.34209 2.42673,0.91364 0.69867,0.66869 3.38481,1.96887 4.71082,2.28099 1.16996,0.27596 2.54559,0.8785 3.61425,1.58337 0.36897,0.24391 1.23714,0.81029 1.9296,1.25884 0.69143,0.44855 1.47175,0.98908 1.73323,1.20096 0.26148,0.21187 0.54777,0.34003 0.63562,0.28525 0.0889,-0.0548 0.49092,0.17157 0.89503,0.5023 0.40411,0.33073 0.3421,0.29558 0.832,0.60151 0.7338,0.45889 1.16891,0.62735 1.72392,0.8847 0.78135,0.36174 2.73575,1.00562 2.94556,1.14618 0.36897,0.24908 -1.58027,0.44546 -2.68201,0.6997 -1.01079,0.23358 -2.07119,0.42788 -3.88917,0.7152 -0.31522,0.0507 -0.61702,0.11886 -0.67076,0.15193 -0.26045,0.1602 -3.65145,0.46096 -5.25446,0.46509 -1.55339,0.004 -1.8035,0.0434 -1.79937,0.27802 0.0165,0.86713 1.12448,1.19993 3.34967,1.00562 2.49597,-0.21704 5.71438,-0.64388 6.00686,-0.79685 0.15607,-0.0806 0.77308,-0.23151 1.37356,-0.33486 1.10381,-0.19017 1.23507,-0.21808 2.42776,-0.51056 0.36587,-0.0899 0.6997,-0.13023 0.74001,-0.0889 0.10439,0.10336 0.0734,0.12093 -1.18856,0.64493 -2.69544,1.11931 -5.58932,3.5729 -7.12721,6.04201 -0.92915,1.4924 -2.05362,3.11607 -3.58841,5.18416 -0.75965,1.02423 -0.78135,1.03767 -1.9296,1.25471 -0.63769,0.12094 -1.7632,0.22738 -2.50217,0.23566 -1.17306,0.0135 -1.59371,-0.0744 -3.35484,-0.69868 -3.28662,-1.16478 -4.19612,-1.80764 -4.99194,-3.53052 -0.37931,-0.81857 -0.71727,-2.36472 -0.55397,-2.5363 0.0341,-0.0341 0.10128,-0.57774 0.14986,-1.20716 0.0496,-0.62942 0.2098,-1.32807 0.3576,-1.55338 0.30076,-0.45992 2.00918,-1.86552 2.52284,-2.07636 0.55811,-0.22944 1.64848,-1.40767 2.14147,-2.31407 l 0.46509,-0.85266 -0.3762,-1.14619 c -0.20568,-0.63045 -0.56638,-1.36219 -0.79995,-1.6278 -0.23255,-0.26459 -0.40411,-0.54881 -0.38138,-0.63046 0.0238,-0.0827 -0.16433,-0.46922 -0.41651,-0.86093 -0.82992,-1.28364 -1.5844,-3.04374 -1.67431,-3.90673 -0.0692,-0.65939 -0.009,-1.00356 0.26871,-1.54926 0.47853,-0.93741 0.91674,-1.19063 1.93063,-1.11311 z m 60.07799,2.70888 0.91777,0.84439 c 0.87747,0.80718 0.91778,0.87953 0.90537,1.66398 -0.009,0.67696 -0.2005,1.17409 -1.08623,2.82773 -0.98702,1.84279 -1.07487,2.0898 -1.06764,3.01377 0.0114,1.39837 0.56327,2.56832 2.26446,4.79868 0.51367,0.67386 0.99116,1.90478 0.99116,2.55177 0,0.62735 -0.68833,1.93995 -1.36943,2.60863 -0.48059,0.47336 -5.28857,2.99828 -5.41466,2.84427 -0.0248,-0.03 -0.185,-0.43201 -0.35656,-0.894 -0.1726,-0.46096 -0.65423,-1.29088 -1.07281,-1.84484 -1.22473,-1.62266 -3.84162,-4.24987 -5.28959,-5.31028 -0.73795,-0.54053 -1.41697,-1.03869 -1.50896,-1.10794 -0.31316,-0.23461 -1.16995,-0.57877 -2.68407,-1.07693 -0.83096,-0.27389 -1.82521,-0.68007 -2.21072,-0.90434 -0.38551,-0.22428 -0.77824,-0.40721 -0.87333,-0.40721 -0.1602,0 -1.20406,-0.63252 -1.63297,-0.99012 -0.27906,-0.23255 -2.39469,-0.86713 -3.16674,-0.95085 -0.36897,-0.0393 -0.8971,-0.14469 -1.17408,-0.23461 -0.40722,-0.13126 -0.3111,-0.14779 0.50229,-0.0879 0.55397,0.0413 1.72393,0.0837 2.60036,0.0982 0.87643,0.0124 1.74459,0.10646 1.9296,0.20774 0.18396,0.10129 0.3731,0.19224 0.41857,0.20257 0.0465,0.009 0.5209,0.21705 1.05524,0.45992 0.5333,0.24392 1.32601,0.51574 1.76113,0.60359 0.43512,0.0879 0.97875,0.2036 1.21026,0.25838 0.23048,0.0537 1.13585,0.14159 2.01331,0.19327 1.87689,0.11265 2.56626,-0.0651 2.48461,-0.64079 -0.0486,-0.34623 -0.17053,-0.38654 -1.47898,-0.49506 -2.58486,-0.21394 -4.2354,-0.57671 -5.95209,-1.30638 -1.59681,-0.68006 -1.73737,-0.709 -3.75378,-0.77515 -1.15238,-0.0372 -2.1239,-0.0971 -2.16007,-0.13332 -0.0362,-0.0362 0.71313,-0.37 1.66501,-0.74104 3.25458,-1.27124 7.0466,-2.4629 8.37055,-2.63137 0.49919,-0.063 0.97358,-0.15503 1.0542,-0.20463 0.0817,-0.0496 0.72244,-0.22428 1.42627,-0.38861 0.7028,-0.1633 1.69395,-0.44855 2.20141,-0.63355 0.50747,-0.18501 1.33739,-0.38344 1.84485,-0.44029 1.56373,-0.1757 1.7384,-0.2098 2.51664,-0.49402 0.41548,-0.15193 1.51206,-0.3235 2.43707,-0.38034 z m -27.44535,7.99847 c 0.61805,0.0207 1.45211,0.14573 2.4877,0.37311 1.0821,0.23667 2.30684,0.49196 2.72128,0.56534 0.70487,0.12609 2.05259,0.68729 3.01997,1.25883 0.23048,0.13643 0.79685,0.41445 1.25781,0.61806 0.46198,0.20257 0.87643,0.41547 0.92294,0.47232 0.0455,0.0568 0.68729,0.31419 1.42523,0.57257 1.57097,0.54881 3.16364,1.27021 3.24322,1.46761 0.031,0.0775 0.12299,0.13953 0.20464,0.13953 0.0806,0 0.42271,0.24598 0.75964,0.54569 0.3359,0.29972 0.81029,0.72245 1.0542,0.93949 0.24288,0.21806 0.67593,0.60256 0.96325,0.85473 0.5302,0.46818 2.76262,3.22461 3.31452,4.09276 0.44545,0.70281 0.94568,2.25931 0.82579,2.57143 -0.0589,0.15399 0.009,0.35346 0.15813,0.46096 0.65836,0.48162 0.82063,2.6479 0.29042,3.88401 -0.35553,0.82888 -1.28467,2.18487 -1.96267,2.86287 -0.68626,0.68625 -3.7083,1.04902 -5.37745,0.64595 -0.37723,-0.092 -1.52548,0.34727 -2.06809,0.79065 -0.14986,0.12195 -0.55397,0.9002 -0.89813,1.72908 -1.31879,3.18122 -1.7539,3.76825 -3.44992,4.66122 -1.35082,0.71004 -2.16111,0.80926 -4.10208,0.50125 -1.34358,-0.21288 -2.16627,-0.51159 -3.61941,-1.31154 -0.39998,-0.22116 -2.25827,-2.09288 -2.0774,-2.09288 0.0444,0 -0.12092,-0.32041 -0.36793,-0.71212 -0.24702,-0.39169 -0.44855,-0.82577 -0.44649,-0.96428 0.001,-0.13848 -0.063,-0.29559 -0.14159,-0.34726 -0.0796,-0.0527 -0.23461,-0.71313 -0.34417,-1.46762 -0.13539,-0.92501 -0.27285,-1.37356 -0.42168,-1.37356 -0.25011,0 -0.60254,-0.78547 -0.45682,-1.02007 0.21188,-0.34314 0.24805,-1.10691 0.26459,-5.4374 0.0217,-6.42649 -0.0631,-7.88996 -0.50643,-8.76536 -0.19947,-0.39274 -0.39481,-0.92191 -0.43408,-1.17512 -0.19017,-1.22474 -0.20361,-2.01332 -0.0445,-2.4722 0.3018,-0.8692 0.77412,-0.99633 1.08624,-0.29353 0.17157,0.38551 0.60358,0.97462 1.70533,2.32234 0.0827,0.10232 0.44855,0.78135 0.81235,1.50998 0.71727,1.43455 1.35909,2.44327 2.60139,4.08348 0.43822,0.5798 0.79685,1.15755 0.79685,1.28571 0,0.39378 0.97875,0.35243 1.29295,-0.0537 0.26355,-0.34004 0.14779,-0.55398 -1.3901,-2.56627 -0.67076,-0.87849 -1.47485,-2.12802 -1.78697,-2.77812 -0.57464,-1.19992 -2.74402,-4.26536 -3.01791,-4.26536 -0.0827,0 -0.10748,-0.0682 -0.0558,-0.15297 0.11058,-0.17776 0.80305,0.15607 2.13216,1.0294 0.52194,0.34313 1.25781,0.74724 1.63505,0.89813 0.37827,0.15193 0.68729,0.3421 0.68729,0.42478 0,0.0816 0.10129,0.14987 0.22428,0.14987 0.12299,0 0.97152,0.52813 1.88619,1.17409 3.88607,2.74297 4.25194,2.93521 4.71496,2.47219 0.34623,-0.34726 0.14882,-0.88159 -0.41445,-1.11725 -0.25115,-0.10438 -0.80305,-0.43305 -1.22783,-0.7307 -0.42375,-0.29766 -1.25367,-0.88056 -1.84382,-1.29604 -1.27434,-0.89503 -3.66696,-2.34818 -3.86849,-2.34818 -0.0775,0 -0.1416,-0.0879 -0.1416,-0.19533 0,-0.10646 -0.0434,-0.15193 -0.0971,-0.0992 -0.0796,0.0796 -1.00872,-0.43098 -3.09025,-1.69809 -0.20464,-0.12506 -0.21187,-0.1943 -0.0372,-0.3762 0.1788,-0.18604 0.58291,-0.26769 1.202,-0.24702 z m -7.92303,2.00815 c 0.0734,0.0734 -1.26297,1.70119 -2.15078,2.62206 -0.86196,0.894 -2.5032,2.80914 -3.41271,3.9822 -0.44648,0.57668 -0.8816,1.04902 -0.96635,1.04902 -0.28938,0 -0.0486,0.75033 0.25942,0.80925 0.60358,0.11576 1.22266,-0.35554 2.54455,-1.93579 0.73794,-0.8816 1.41903,-1.68775 1.51205,-1.79007 2.41432,-2.65721 3.31039,-3.70108 3.46025,-4.03077 0.1633,-0.35657 0.23875,-0.38344 0.66766,-0.23358 0.58705,0.20464 0.59428,0.37414 0.0806,1.79834 -0.22221,0.61495 -0.45475,1.56683 -0.51677,2.11771 -0.16433,1.45728 -0.72657,3.58117 -1.14515,4.32531 -0.35656,0.63666 -0.3576,0.65111 -0.0403,0.88368 0.76792,0.56118 1.44178,0.0444 1.86036,-1.42629 0.40204,-1.41076 0.55604,-2.04743 0.66456,-2.7409 0.0537,-0.3452 0.16433,-0.62839 0.24494,-0.62839 0.25528,0 0.52814,1.11208 0.52193,2.12699 -0.003,0.53642 0.0176,3.01376 0.0465,5.50458 0.0548,4.71392 -0.11369,6.72724 -0.81959,9.81337 -0.5736,2.50938 -1.65364,4.22918 -3.24011,5.15831 -0.61805,0.36277 -1.02112,0.45683 -2.19625,0.51263 -1.24437,0.06 -1.62057,0.007 -2.77709,-0.39272 -1.38286,-0.47749 -2.43499,-1.06971 -3.01893,-1.70119 -0.85783,-0.92707 -1.79008,-2.18178 -2.34611,-3.15743 -0.78652,-1.38081 -1.60817,-1.97094 -3.05925,-2.19625 -1.15135,-0.17881 -2.80913,-0.57775 -3.18327,-0.7679 -0.20257,-0.10235 -0.41961,-0.30801 -0.48059,-0.45683 h -10e-4 c -0.28422,-0.68522 -0.21704,-1.48932 0.21084,-2.53421 0.24598,-0.59944 0.4899,-1.12861 0.54261,-1.17512 0.0527,-0.0455 0.53226,-0.72451 1.06453,-1.50897 1.55753,-2.29235 1.7632,-2.58382 2.04019,-2.89388 0.14469,-0.16121 0.26251,-0.33486 0.26251,-0.38756 0,-0.0517 0.27182,-0.44752 0.60358,-0.88056 0.3328,-0.43305 1.01906,-1.49035 1.52653,-2.35024 0.50746,-0.85887 1.02836,-1.60301 1.15755,-1.65262 0.12919,-0.0496 0.23461,-0.18915 0.23461,-0.31006 0,-0.26046 2.13837,-2.22106 3.29592,-3.02101 1.79627,-1.24127 4.5806,-2.33371 5.00951,-2.32647 0.42892,0.007 0.51677,-0.0785 0.94258,-0.1633 0.29456,-0.0589 0.56431,-0.0775 0.60048,-0.0413 z m 0,0"
       id="path20"
       inkscape:export-filename="D:\Downloads\path20.png"
       inkscape:export-xdpi="104.31"
       inkscape:export-ydpi="104.31"
       style="stroke-width:0.264583;fill:#7a8844;fill-opacity:1" />
  </g>
</svg>
