<?xml version="1.0" encoding="UTF-8" standalone="no"?>
<!-- Created with Inkscape (http://www.inkscape.org/) -->

<svg
   width="69.927856mm"
   height="53.213436mm"
   viewBox="0 0 69.927856 53.213436"
   version="1.1"
   id="svg868"
   inkscape:version="1.1.1 (3bf5ae0d25, 2021-09-20)"
   sodipodi:docname="flower1.svg"
   xmlns:inkscape="http://www.inkscape.org/namespaces/inkscape"
   xmlns:sodipodi="http://sodipodi.sourceforge.net/DTD/sodipodi-0.dtd"
   xmlns="http://www.w3.org/2000/svg"
   xmlns:svg="http://www.w3.org/2000/svg">
  <sodipodi:namedview
     id="namedview870"
     pagecolor="#ffffff"
     bordercolor="#666666"
     borderopacity="1.0"
     inkscape:pageshadow="2"
     inkscape:pageopacity="0.0"
     inkscape:pagecheckerboard="0"
     inkscape:document-units="mm"
     showgrid="false"
     inkscape:zoom="0.66368547"
     inkscape:cx="287.03356"
     inkscape:cy="277.99313"
     inkscape:window-width="1920"
     inkscape:window-height="1001"
     inkscape:window-x="-9"
     inkscape:window-y="-9"
     inkscape:window-maximized="1"
     inkscape:current-layer="layer1" />
  <defs
     id="defs865" />
  <g
     inkscape:label="Шар 1"
     inkscape:groupmode="layer"
     id="layer1"
     transform="translate(-29.219969,-75.051001)">
    <path
       fill-rule="nonzero"
       fill="#1a1a1a"
       fill-opacity="1"
       d="m 57.331195,75.063755 c -0.356579,-0.02585 -0.780336,-0.01138 -1.389063,0.03411 -2.208662,0.166397 -2.82567,0.362768 -3.685566,1.175121 -1.132761,1.070737 -1.52654,2.816365 -0.958083,4.258138 0.191188,0.478525 0.310065,0.871265 0.270775,0.871265 -0.0403,0 -0.396875,-0.217041 -0.79375,-0.482659 -0.396875,-0.264583 -1.249521,-0.613915 -1.894443,-0.775144 -1.151361,-0.28629 -3.08819,-0.38654 -3.427201,-0.176734 -0.09507,0.05891 -0.441299,0.14056 -0.772028,0.182933 -0.328665,0.04238 -0.910537,0.22841 -1.293997,0.41238 -0.381371,0.185002 -0.785469,0.335896 -0.89916,0.335896 -0.352425,0 -1.519291,1.221632 -1.91307,2.004013 -0.206693,0.411342 -0.518822,1.161684 -0.6935,1.667081 -0.171555,0.505394 -0.447516,1.040762 -0.605631,1.188558 -0.605657,0.559139 -3.137799,1.373558 -5.242057,1.685685 -1.380807,0.204639 -2.071185,0.464055 -2.634456,0.992187 -0.203624,0.190169 -0.437198,0.346231 -0.518848,0.346231 -0.288343,0 -0.960147,1.040765 -1.331172,2.067058 -0.312129,0.859895 -0.364834,1.292944 -0.312129,2.545582 0.0372,0.829924 0.190156,1.999877 0.341048,2.600357 0.342106,1.347721 0.926042,2.851507 1.108975,2.851507 0.07649,0 0.182959,0.141592 0.237728,0.315225 0.125042,0.396875 2.048457,2.348175 2.511478,2.551775 0.190156,0.0827 0.459925,0.22118 0.597376,0.30696 0.140547,0.0868 0.394811,0.20051 0.569463,0.25632 0.264583,0.0827 0.190182,0.18293 -0.44958,0.60564 -0.859896,0.57051 -1.590596,1.61024 -2.241709,3.19361 -0.605658,1.47484 -0.597403,3.07991 0.02686,4.932 0.764805,2.27479 1.791097,3.81992 3.368278,5.07462 1.036638,0.82373 3.704167,2.13527 5.352653,2.6324 3.912923,1.17822 5.381572,2.40192 7.29152,6.07508 0.878523,1.69292 1.436608,2.27583 2.812256,2.93936 0.963242,0.46405 1.246426,0.51883 2.69957,0.5333 2.471156,0.0217 4.069001,-0.37931 6.738594,-1.69396 1.246452,-0.61288 2.452582,-1.25573 2.685124,-1.4273 0.720354,-0.53743 2.180749,-2.01538 2.180749,-2.20762 0,-0.10128 0.213915,-0.50539 0.473339,-0.89606 l 0.471302,-0.71211 0.393753,0.71211 c 0.466143,0.84542 0.624258,1.03766 1.909974,2.31717 0.672836,0.66662 1.421104,1.19062 2.350241,1.64124 1.597845,0.77514 2.798789,1.05213 4.7067,1.08314 1.288811,0.0207 1.478967,-0.0227 2.669592,-0.61185 0.703845,-0.3483 1.280557,-0.72554 1.280557,-0.83716 0,-0.49816 3.327956,-3.514 4.262253,-3.8623 0.515752,-0.1912 5.786728,-0.77618 6.056497,-0.67179 0.137451,0.0527 0.251143,0.0114 0.251143,-0.091 0,-0.10129 0.116787,-0.185 0.259397,-0.185 0.240824,0 0.608753,-0.1633 2.087748,-0.93224 1.891347,-0.98289 6.093671,-6.80889 6.283854,-8.71265 0.278024,-2.7895 0.280088,-3.26595 0.02064,-4.27261 -0.147796,-0.57567 -0.417539,-1.2578 -0.600471,-1.51618 -0.185024,-0.25839 -0.335915,-0.53951 -0.335915,-0.62529 0,-0.0848 -0.420635,-0.62115 -0.936361,-1.18959 l -0.936387,-1.03456 0.385498,-0.62942 c 0.214974,-0.34624 0.510567,-0.74208 0.659395,-0.88057 0.150892,-0.13849 0.529166,-0.59221 0.841295,-1.00665 0.309034,-0.415482 0.685245,-0.868165 0.830951,-1.006659 0.722445,-0.687298 0.920882,-2.538346 0.40722,-3.821988 -0.402034,-1.004591 -1.487249,-1.896526 -2.783284,-2.287201 -1.653646,-0.497126 -2.661338,-0.95498 -2.661338,-1.208194 0,-0.127124 -0.103346,-0.23151 -0.230479,-0.23151 -0.32557,0 -1.249547,-2.014347 -1.418008,-3.099554 -0.203597,-1.290876 -0.759645,-2.033984 -1.775592,-2.372982 -0.72554,-0.241845 -1.000469,-0.250113 -2.254144,-0.06305 -0.7865,0.11679 -2.225172,0.466122 -3.201855,0.776182 -0.973588,0.310057 -1.791124,0.56534 -1.814883,0.56534 -0.02688,0 -0.0372,-0.470257 -0.02381,-1.046966 0.0341,-1.746663 -0.193278,-2.941421 -0.80719,-4.209561 -0.722445,-1.489316 -1.219571,-2.028817 -2.394691,-2.586924 -1.129639,-0.535366 -2.586911,-0.561205 -4.206452,-0.07441 -0.595312,0.178803 -1.609222,0.454753 -2.254144,0.613918 -0.645954,0.159163 -1.209225,0.345197 -1.256771,0.412377 -0.04754,0.06821 -0.603567,0.374137 -1.23817,0.680061 -1.090375,0.528135 -1.217481,0.550871 -2.469092,0.453721 -0.748268,-0.05685 -1.560618,-0.228409 -1.870684,-0.392742 -0.298688,-0.160197 -0.613912,-0.271817 -0.697626,-0.248047 -0.08475,0.02376 -0.196374,-0.02066 -0.252175,-0.09922 -0.05479,-0.07855 -0.36486,-0.325562 -0.685244,-0.548804 -0.772054,-0.532267 -1.317757,-1.059365 -2.240677,-2.156973 -0.905378,-1.071769 -2.805007,-2.402954 -4.000791,-2.799829 -0.341074,-0.113689 -0.632539,-0.1788 -0.992188,-0.204639 z m -1.348767,1.261938 c 0.890905,0.0052 1.801442,0.108521 2.272745,0.31006 0.785468,0.338997 2.081503,1.355989 2.949681,2.31717 2.865966,3.172934 4.450371,4.04213 7.384547,4.04213 1.473835,0 1.875869,-0.130223 3.878844,-1.260904 0.335889,-0.189137 0.751364,-0.374136 0.922946,-0.41031 0.172588,-0.03721 0.918792,-0.235646 1.656742,-0.440285 1.724951,-0.477489 2.759525,-0.569474 3.55637,-0.315225 0.644922,0.205671 1.560618,0.927074 1.560618,1.2299 0,0.08992 0.103373,0.284218 0.230479,0.428913 0.717285,0.818555 1.048015,5.405356 0.502311,6.95048 -0.127132,0.359669 -0.230478,0.81752 -0.230478,1.016992 0,0.199472 -0.14986,0.658357 -0.335889,1.020093 -0.185023,0.362768 -0.335915,0.718302 -0.335915,0.790649 0,0.297656 -4.187851,4.252971 -5.21208,4.919596 -1.290875,0.844394 -2.37609,2.093929 -4.616767,5.325778 -0.944642,1.35909 -1.164802,1.53789 -1.024229,0.82785 0.127133,-0.62115 0.434076,-1.31671 2.130108,-4.818307 1.463463,-3.019973 1.846897,-3.876768 1.846897,-4.124815 0,-0.09405 0.145733,-0.489892 0.322475,-0.880565 0.595312,-1.307414 0.608753,-1.592667 0.09303,-1.790073 -0.781367,-0.296621 -0.968428,-0.09818 -1.566836,1.636078 -0.312129,0.900202 -1.20613,2.956925 -1.989561,4.572331 -0.785468,1.614371 -1.568873,3.237011 -1.740455,3.605981 -0.474372,1.01182 -0.373089,0.33796 0.276992,-1.852085 0.137451,-0.465087 0.312129,-1.235067 0.389652,-1.711523 0.134355,-0.85266 0.127106,-0.869196 -0.347266,-1.034561 -0.264583,-0.09198 -0.581898,-0.130225 -0.703844,-0.08268 -0.205661,0.07958 -0.415476,0.835091 -1.058334,3.842659 -0.359674,1.69292 -0.473366,1.7818 -0.703844,0.56017 -0.108506,-0.58498 -0.351393,-1.629874 -0.53639,-2.322336 -0.184997,-0.691431 -0.371025,-1.667082 -0.413412,-2.167311 -0.03926,-0.500227 -0.176741,-1.066602 -0.300751,-1.257805 -0.125069,-0.191201 -0.283184,-0.720368 -0.352452,-1.176155 -0.06615,-0.454753 -0.259397,-1.284677 -0.43098,-1.844847 -0.169492,-0.560173 -0.391689,-1.337387 -0.495062,-1.72806 -0.254238,-0.972553 -0.807164,-1.554427 -1.304289,-1.369428 -0.206719,0.07648 -0.378275,0.252182 -0.378275,0.388607 0,0.368972 0.407193,1.863452 0.894,3.287657 0.235638,0.690396 0.590127,2.161106 0.783405,3.268017 0.478526,2.750219 0.680059,3.772379 0.8568,4.343921 0.249079,0.80512 0.188093,1.06763 -0.137451,0.59944 -0.158141,-0.22841 -0.73279,-0.94257 -1.275371,-1.588527 -0.541575,-0.645956 -1.136888,-1.47588 -1.325007,-1.844849 -0.184996,-0.36897 -0.439234,-0.787548 -0.564303,-0.929143 -0.12401,-0.14056 -0.727604,-1.236099 -1.338421,-2.431894 -0.613913,-1.195792 -1.172025,-2.24999 -1.24333,-2.343007 -0.0713,-0.09199 -0.225293,-0.469222 -0.341048,-0.838192 -0.116814,-0.368969 -0.342106,-0.859896 -0.498184,-1.090374 -0.451644,-0.670759 -1.513073,-2.679938 -1.513073,-2.863908 0,-0.194302 -0.693499,-1.218528 -0.880559,-1.301211 -0.06927,-0.03101 -0.127133,-0.129193 -0.127133,-0.217043 0,-0.08888 -0.145732,-0.31936 -0.32557,-0.511595 -0.394811,-0.420645 -0.84955,-1.342554 -0.84955,-1.715659 0,-0.147794 -0.0713,-0.267682 -0.161237,-0.267682 -0.08784,0 -0.240798,-0.321429 -0.338984,-0.713137 -0.09716,-0.392739 -0.245984,-0.835091 -0.327634,-0.983919 -0.08475,-0.14986 -0.249079,-0.602546 -0.364834,-1.006655 h 0.0026 c -0.249079,-0.86093 -0.293529,-1.424204 -0.137451,-1.679485 0.06096,-0.101285 0.08475,-0.306959 0.04752,-0.457853 -0.103346,-0.411345 0.524007,-1.312582 1.127601,-1.624706 0.380339,-0.197406 1.250553,-0.292489 2.140427,-0.288356 z m -8.697145,4.820378 c 0.230479,0.03307 0.928106,0.221175 1.5503,0.416512 1.010788,0.317293 1.290875,0.511596 2.616888,1.816944 1.227825,1.209228 2.878375,3.288689 2.878375,3.624585 0,0.04651 0.447517,0.861962 0.992188,1.811774 0.547767,0.950846 1.044892,1.9358 1.108974,2.189014 0.06305,0.254249 0.184997,0.460955 0.264584,0.460955 0.08475,0 0.150892,0.07648 0.150892,0.168465 0,0.09198 0.46302,1.119312 1.029414,2.282032 1.134798,2.334741 3.063372,5.505606 3.938773,6.482288 0.715195,0.79479 0.72554,0.95602 0.0217,0.42168 -0.298688,-0.22841 -0.698658,-0.46405 -0.883655,-0.52296 -0.188119,-0.0589 -0.452702,-0.27079 -0.587057,-0.469225 -0.495062,-0.725537 -3.890196,-4.67465 -4.945433,-5.750554 -0.36793,-0.376203 -0.968402,-1.081072 -1.333236,-1.563727 -0.561207,-0.743109 -0.749326,-0.879534 -1.207161,-0.879534 -1.097624,0 -0.928132,0.433049 1.019043,2.598291 0.748268,0.830955 1.820042,2.077392 2.383313,2.768822 0.564304,0.692465 1.185466,1.402498 1.38184,1.5782 0.44958,0.403074 0.465084,0.671793 0.02381,0.436147 -0.184997,-0.09818 -0.995283,-0.373102 -1.804538,-0.610815 -0.80719,-0.237712 -1.677405,-0.495059 -1.933733,-0.571542 -0.36793,-0.110585 -0.556022,-0.06098 -0.908474,0.24288 -0.251142,0.217043 -0.404098,0.486793 -0.351393,0.623218 0.05064,0.132291 0.571553,0.376206 1.158584,0.542602 1.48725,0.420648 3.05099,0.971517 3.241146,1.141017 0.08784,0.0775 -0.510566,0.14263 -1.341517,0.14676 -1.599909,0.006 -2.166276,0.21911 -2.060866,0.77618 0.08475,0.42685 0.825791,0.51263 3.98735,0.45889 2.505287,-0.0424 3.510915,0.11059 2.408132,0.36897 -0.257334,0.0599 -0.881592,0.22014 -1.389063,0.3545 -3.16984,0.84232 -4.966096,1.03043 -7.493079,0.78548 -2.270654,-0.22014 -3.958405,-0.7152 -7.689453,-2.25413 -1.272275,-0.52503 -3.171904,-0.58394 -4.899951,-0.15296 -0.81235,0.20257 -1.679495,0.47336 -1.933734,0.60358 -0.613912,0.31523 -1.52654,0.0796 -2.37609,-0.61082 -0.778246,-0.63355 -1.846924,-1.707383 -2.042239,-2.052582 -0.56949,-1.003557 -1.07696,-2.116667 -1.07696,-2.36678 0,-0.151929 -0.07956,-0.276987 -0.177748,-0.276987 -0.09716,0 -0.134355,-0.06718 -0.08684,-0.148828 0.05273,-0.08165 0.02064,-0.364834 -0.06615,-0.628386 -0.354488,-1.067633 -0.249078,-3.989419 0.174678,-4.778002 0.217038,-0.409276 1.209225,-1.319815 1.730137,-1.5906 0.195316,-0.10232 1.024229,-0.275953 1.841738,-0.386541 0.81751,-0.110585 1.762178,-0.301789 2.098067,-0.423746 0.335888,-0.122989 0.949801,-0.318325 1.36218,-0.434081 1.051111,-0.293523 1.677432,-0.559138 1.677432,-0.709001 0,-0.06925 0.07956,-0.127124 0.177747,-0.127124 0.398966,0 1.309503,-1.129647 1.5503,-1.928564 0.592217,-1.947169 1.421104,-3.103687 2.227262,-3.103687 0.225293,0 0.408253,-0.06511 0.408253,-0.144695 0,-0.186034 2.634456,-0.694531 3.185318,-0.613915 z m 41.25124,5.914884 c 0.978747,-0.0041 1.290876,0.222208 1.452113,1.0511 0.222197,1.118277 0.651113,2.2934 1.132734,3.094384 0.700723,1.162719 2.092907,2.375048 3.005508,2.613795 2.29444,0.602546 2.862871,0.940509 3.239082,1.922362 0.388594,1.019058 0.12917,2.198314 -0.672835,3.047875 -0.322475,0.341064 -0.946706,1.134814 -1.385967,1.763199 -0.442357,0.62735 -0.878496,1.11001 -0.968402,1.07177 -3.156399,-1.32085 -3.024108,-1.28571 -4.823486,-1.28157 -0.944642,0.002 -2.135267,0.0827 -2.642738,0.1788 -1.08831,0.20463 -3.035459,0.81958 -3.262841,1.02939 -0.08681,0.0806 -0.320411,0.14676 -0.515726,0.14676 -0.198438,0 -0.410316,0.0517 -0.473366,0.11576 -0.06408,0.0641 -0.286279,0.13952 -0.489903,0.16743 -0.206692,0.0279 -0.676963,0.15813 -1.044892,0.28939 -0.36793,0.13022 -1.259867,0.36277 -1.979216,0.51676 -0.722418,0.154 -1.843802,0.46612 -2.494915,0.6935 -1.317757,0.46095 -3.325918,0.7245 -3.325918,0.43718 0,-0.19844 0.952923,-1.04593 1.175147,-1.04593 0.07646,0 0.364834,-0.18604 0.634576,-0.41445 0.269743,-0.22737 1.386999,-0.87126 2.479437,-1.42936 1.092438,-0.55811 2.045362,-1.106913 2.116667,-1.220602 0.43098,-0.679029 -0.140573,-0.895035 -1.360117,-0.51263 -0.981869,0.307991 -3.585316,1.674312 -4.474157,2.346112 -0.285248,0.216 -0.605658,0.3917 -0.7121,0.3917 -0.108532,0 -0.195342,0.0692 -0.195342,0.154 0,0.0847 -0.383434,0.39067 -0.854736,0.68006 -0.471276,0.29042 -0.878496,0.50436 -0.904319,0.47646 -0.02688,-0.0289 0.248046,-0.42891 0.605631,-0.8909 0.356579,-0.46096 0.904346,-1.21957 1.216475,-1.68569 0.857832,-1.291908 2.090816,-2.55488 2.879407,-2.947622 0.992187,-0.496094 5.021924,-4.509286 5.508704,-5.488035 0.213942,-0.429948 0.531231,-1.296046 0.709004,-1.925466 0.283184,-1.016992 0.396875,-1.196827 1.036638,-1.619538 1.029388,-0.683162 4.273629,-1.721858 5.389853,-1.725994 z M 67.649945,90.10573 c -0.158142,0.0052 -0.356579,0.07338 -0.595313,0.200506 -0.30181,0.16123 -0.332793,0.322461 -0.293529,1.46761 0.0527,1.506884 0.103347,1.705321 0.43098,1.705321 0.476462,0 0.757582,-0.517797 0.918819,-1.690851 0.16121,-1.157552 0.02064,-1.699123 -0.460957,-1.682586 z m 21.542851,11.73469 c 1.134824,0.0114 2.150771,0.0744 2.256208,0.13849 0.103346,0.0651 0.354488,0.13539 0.556021,0.15709 1.06352,0.11369 3.412729,1.79628 4.053523,2.90215 0.242861,0.42375 0.489876,0.80822 0.544671,0.8537 0.262493,0.216 0.508476,1.19682 0.571527,2.26446 0.07752,1.28881 -0.10541,2.80913 -0.346234,2.88871 -0.08475,0.0279 -0.603568,0.38861 -1.153425,0.80202 -0.550862,0.41341 -1.063492,0.75137 -1.137893,0.75344 -0.07443,0 -0.454766,0.14676 -0.844391,0.32556 -1.16377,0.52917 -3.640111,1.00769 -4.386316,0.84646 -0.093,-0.0196 -0.220133,-0.0279 -0.283183,-0.0196 -0.06099,0.008 -0.802005,-0.13229 -1.645365,-0.31212 -1.378743,-0.29456 -3.329014,-1.12035 -3.77653,-1.60094 -0.09197,-0.0982 -0.507444,-0.40204 -0.922946,-0.67283 -0.705882,-0.46405 -0.856774,-0.49402 -2.433955,-0.49402 -1.62986,0 -1.719792,0.0196 -2.993099,0.67075 -0.719323,0.36898 -1.523418,0.89711 -1.785937,1.17409 -0.258366,0.27699 -0.896065,0.96635 -1.414886,1.53273 -0.936387,1.02629 -1.942015,1.61747 -3.03239,1.78697 -0.544671,0.0837 -1.756992,-0.31626 -1.756992,-0.57981 0,-0.0889 -0.06099,-0.12196 -0.134355,-0.0765 -0.217038,0.13436 -1.989534,-1.64228 -2.34405,-2.34921 -0.439234,-0.87644 -0.559144,-1.44074 -0.367929,-1.7415 0.08475,-0.13746 0.158141,-0.5147 0.161237,-0.83716 0.0026,-0.75241 0.317288,-1.89239 0.563271,-2.05258 0.106442,-0.0672 0.34417,-0.123 0.527103,-0.12093 0.388594,10e-4 0.716227,0.58808 1.455209,2.59313 0.271806,0.73794 0.554989,1.40353 0.629417,1.47897 0.278024,0.28009 1.132734,0.2987 1.354957,0.0289 0.184997,-0.22117 0.142611,-0.48679 -0.2522,-1.64124 -0.258366,-0.75654 -0.615977,-1.66708 -0.79375,-2.02158 -0.176716,-0.35553 -0.280088,-0.6842 -0.232543,-0.73174 0.04548,-0.0475 0.804096,0.22221 1.682592,0.59841 0.878496,0.37724 1.789033,0.73381 2.024697,0.79272 0.51779,0.13022 0.926042,-0.16846 0.926042,-0.67903 0,-0.30696 -0.214974,-0.45475 -1.217507,-0.84336 -2.233454,-0.86609 -3.093349,-1.36632 -3.185345,-1.85518 l -0.08784,-0.44338 2.289255,0.0692 c 2.452581,0.0744 2.89388,0.0104 5.973815,-0.8754 1.015947,-0.29145 2.450491,-0.70383 3.188414,-0.9157 0.73795,-0.21188 2.323386,-0.70694 3.521234,-1.09968 2.116667,-0.69453 2.243799,-0.71417 4.24987,-0.69453 z m -48.699869,0.11575 c 1.241266,-0.12712 2.246894,0.11885 4.024577,0.85163 2.976562,1.22576 4.280878,1.56269 7.114804,1.83761 2.823607,0.27389 3.84474,0.20257 6.304518,-0.44338 2.162149,-0.56741 2.786407,-0.64389 3.574971,-0.43719 0.608753,0.15917 0.709004,0.24392 0.632539,0.52917 -0.05064,0.18707 -0.09509,0.60462 -0.09819,0.92708 -0.0082,0.51366 -0.105436,0.64492 -0.76999,1.048 -0.415475,0.25424 -0.822696,0.46198 -0.897096,0.46198 -0.07649,0 -0.809255,0.3328 -1.626765,0.74001 -1.380807,0.68833 -1.513099,0.72243 -1.873805,0.49196 -0.303848,-0.19327 -0.441299,-0.20361 -0.629417,-0.0486 -0.351394,0.29249 -0.296625,0.62219 0.188118,1.10588 0.357585,0.35553 0.526045,0.41031 1.007692,0.31936 0.571527,-0.10646 1.762152,-0.62942 2.926953,-1.28261 0.322448,-0.1819 0.870215,-0.44959 1.214385,-0.59531 0.346234,-0.1447 0.629417,-0.33177 0.629417,-0.41341 0,-0.24185 0.457862,-0.17054 0.558112,0.0858 0.05064,0.13022 0.317289,0.28525 0.593249,0.34623 1.070716,0.23565 1.060397,0.80202 -0.03204,1.54203 -0.383434,0.26044 -1.248516,0.96531 -1.921325,1.56579 -0.766895,0.68627 -1.372526,1.09864 -1.637109,1.10795 -0.540544,0.0217 -0.635635,0.13022 -0.500248,0.5581 0.359675,1.12965 1.645391,0.69556 3.693848,-1.2454 1.28053,-1.21543 1.658805,-1.35599 1.187503,-0.44545 -0.145706,0.28008 -0.309007,0.79685 -0.364834,1.14825 -0.28112,1.77043 -0.992187,3.04891 -2.167308,3.89227 -0.753427,0.5426 -1.150302,0.62631 -4.463812,0.94257 -1.238144,0.11679 -2.018479,-0.32453 -2.52386,-1.42833 -0.653203,-1.42007 -0.975651,-2.16835 -0.975651,-2.25516 0,-0.0506 -0.228415,-0.57154 -0.503343,-1.15652 -0.608727,-1.28468 -1.550274,-2.25413 -2.878376,-2.96209 -1.299131,-0.69247 -1.62986,-0.60772 -3.273187,0.84645 -0.722418,0.63873 -1.399381,1.16169 -1.505849,1.16376 -0.10541,0.001 -0.234606,0.11265 -0.285248,0.24701 -0.0527,0.13436 -0.495062,0.45062 -0.981842,0.7028 -1.513099,0.77928 -4.669499,0.72037 -7.516865,-0.13952 -1.177184,-0.35657 -2.410196,-1.32189 -3.312451,-2.59519 h -0.0026 c -0.510567,-0.72348 -0.463021,-1.43454 0.190156,-2.82774 0.922946,-1.96577 2.75127,-3.26388 5.545931,-3.93774 0.502285,-0.12093 0.94152,-0.20568 1.353899,-0.24805 z m 25.328694,2.59416 c 0.140573,0 0.251143,0.14882 0.251143,0.33589 0,0.18604 -0.11057,0.33487 -0.251143,0.33487 -0.139515,0 -0.251142,-0.14883 -0.251142,-0.33487 0,-0.18707 0.111627,-0.33589 0.251142,-0.33589 z m 2.36265,1.01389 c 0.143669,-0.0424 0.238733,0.0971 0.238733,0.38447 0,0.23564 -0.101282,0.39067 -0.254238,0.39067 -0.251142,0 -0.346234,-0.46198 -0.137451,-0.67075 0.0558,-0.0558 0.108506,-0.0899 0.152956,-0.10439 z m -18.914613,3.82716 0.476462,0.25941 c 0.261488,0.14263 0.671803,0.43718 0.912601,0.65422 0.529166,0.47749 1.658805,2.12494 1.658805,2.41949 0,0.32557 1.687777,3.60289 2.082562,4.04317 0.285274,0.31936 0.661458,0.53847 1.486217,0.86713 0.513662,0.20567 1.503786,0.28939 1.968871,0.16847 0.32041,-0.0848 1.002532,-0.16434 1.507939,-0.1788 1.823138,-0.0486 2.862871,-0.51367 4.326335,-1.93374 0.608753,-0.59221 1.121383,-1.0759 1.139984,-1.0759 0.01852,0 0.07959,0.92501 0.132291,2.05465 0.116787,2.42673 0.140573,2.6417 0.28837,2.6417 0.06405,0 0.150891,0.17054 0.196347,0.37724 0.04445,0.20774 0.137477,0.50953 0.203623,0.67179 0.100251,0.23668 0.0372,0.29353 -0.328665,0.29353 -0.51779,0 -0.946706,0.43511 -1.428353,1.45004 -0.444395,0.94154 -1.656742,1.96887 -3.270065,2.77399 -0.737949,0.36897 -1.418008,0.7307 -1.511035,0.80512 -0.280088,0.22634 -2.148708,0.97048 -2.683034,1.07073 -0.278024,0.0507 -0.782373,0.16227 -1.124479,0.24805 -0.337953,0.0847 -1.245394,0.13953 -2.010199,0.12196 -1.105879,-0.0259 -1.585436,-0.12196 -2.318226,-0.46716 -1.090374,-0.5147 -1.319794,-0.76791 -2.066025,-2.26859 -1.164775,-2.34508 -2.315104,-3.84266 -3.635931,-4.73357 -1.275397,-0.85989 -1.809723,-1.11104 -4.026641,-1.88825 -4.111386,-1.44281 -5.765032,-2.58382 -7.2254,-4.98161 -0.29972,-0.49403 -0.680059,-1.52445 -0.561208,-1.52445 0.04239,0 0.584994,0.31212 1.20613,0.69349 0.902282,0.55397 1.516195,0.77515 3.059245,1.10484 1.060397,0.22738 2.658242,0.45166 3.550179,0.50023 1.380781,0.0734 1.791097,0.031 2.76778,-0.29145 1.066614,-0.3514 1.841764,-0.77205 2.372995,-1.28881 0.121946,-0.11782 0.310038,-0.21498 0.415475,-0.21498 0.106442,0 0.698658,-0.53433 1.314635,-1.18649 z m 31.305579,2.90318 c 1.317758,0.0589 1.380808,0.0816 2.674779,0.96118 2.277904,1.54822 4.947497,2.3275 7.313242,2.13527 1.529636,-0.12402 2.113571,-0.26355 3.510915,-0.83716 0.590127,-0.24288 1.100693,-0.44235 1.132734,-0.44235 0.132292,0 0.0341,0.33073 -0.156051,0.53743 -0.116787,0.12506 -0.394811,0.48886 -0.622194,0.80926 -0.759646,1.07383 -2.098067,2.51147 -2.338864,2.51147 -0.07959,0 -0.245983,0.12506 -0.373115,0.27906 -0.539512,0.65215 -1.93167,1.04799 -4.881351,1.38802 -1.595782,0.18397 -3.164681,0.42478 -3.485065,0.53537 -1.360117,0.46406 -3.148119,1.93063 -5.31749,4.36356 -0.749327,0.83922 -1.953393,1.2175 -3.400319,1.06867 -2.040176,-0.20877 -2.267559,-0.26562 -3.497475,-0.87643 -1.791096,-0.88987 -3.000322,-2.2624 -3.783726,-4.29328 -0.327634,-0.84853 -0.640795,-1.99471 -0.695564,-2.54868 -0.05583,-0.55397 -0.127132,-1.48105 -0.156077,-2.06189 -0.06099,-1.15755 -0.06924,-1.15549 0.902282,-0.19121 0.581872,0.57775 1.867588,1.31672 2.740898,1.57407 0.595312,0.1757 0.888841,0.16536 1.801442,-0.0589 0.600498,-0.1478 1.204066,-0.34313 1.341517,-0.43408 0.137477,-0.091 0.30181,-0.1664 0.36277,-0.16744 0.179837,-0.004 1.002533,-0.79581 2.040202,-1.96577 0.53639,-0.60461 1.229889,-1.2361 1.542018,-1.40353 0.310065,-0.16743 0.518822,-0.37724 0.463021,-0.46612 -0.05271,-0.0889 -0.01852,-0.11266 0.07649,-0.0527 0.09819,0.0599 0.463021,-0.0114 0.815446,-0.1571 0.457861,-0.1912 1.018037,-0.25011 1.989534,-0.2067 z m 0,0"
       id="path30"
       inkscape:export-filename="D:\Downloads\path30.png"
       inkscape:export-xdpi="104.31"
       inkscape:export-ydpi="104.31"
       style="stroke-width:0.264583;fill:#7a8844;fill-opacity:1" />
  </g>
</svg>
