<?xml version="1.0" encoding="UTF-8" standalone="no"?>
<!-- Created with Inkscape (http://www.inkscape.org/) -->

<svg
   width="85.195953mm"
   height="73.258667mm"
   viewBox="0 0 85.195953 73.258667"
   version="1.1"
   id="svg5"
   inkscape:version="1.1.1 (3bf5ae0d25, 2021-09-20)"
   sodipodi:docname="leaf2.svg"
   xmlns:inkscape="http://www.inkscape.org/namespaces/inkscape"
   xmlns:sodipodi="http://sodipodi.sourceforge.net/DTD/sodipodi-0.dtd"
   xmlns="http://www.w3.org/2000/svg"
   xmlns:svg="http://www.w3.org/2000/svg">
  <sodipodi:namedview
     id="namedview7"
     pagecolor="#ffffff"
     bordercolor="#666666"
     borderopacity="1.0"
     inkscape:pageshadow="2"
     inkscape:pageopacity="0.0"
     inkscape:pagecheckerboard="0"
     inkscape:document-units="mm"
     showgrid="false"
     inkscape:zoom="0.4692965"
     inkscape:cx="7.4579717"
     inkscape:cy="467.72137"
     inkscape:window-width="1920"
     inkscape:window-height="1001"
     inkscape:window-x="-9"
     inkscape:window-y="-9"
     inkscape:window-maximized="1"
     inkscape:current-layer="layer1" />
  <defs
     id="defs2" />
  <g
     inkscape:label="Шар 1"
     inkscape:groupmode="layer"
     id="layer1"
     transform="translate(-9.9562876,-93.234025)">
    <g
       id="g3170">
      <path
         style="fill:none;stroke:#7a8844;stroke-width:0.4;stroke-linecap:butt;stroke-linejoin:miter;stroke-miterlimit:4;stroke-dasharray:none;stroke-opacity:1"
         d="M 94.716242,159.9746 C 78.441499,130.98369 0.70549864,176.46194 11.698583,126.99306 15.032688,111.98958 33.988412,113.57158 31.008293,93.306772"
         id="path887" />
      <path
         style="fill:none;stroke:#7a8844;stroke-width:0.4;stroke-linecap:butt;stroke-linejoin:miter;stroke-miterlimit:4;stroke-dasharray:none;stroke-opacity:1"
         d="M 29.007111,106.60167 C 32.43655,96.380969 46.193026,99.143065 55.062487,99.316057 49.231874,109.30136 37.090921,109.76028 29.007111,106.60167"
         id="path891"
         sodipodi:nodetypes="ccc" />
      <path
         style="fill:none;stroke:#7a8844;stroke-width:0.4;stroke-linecap:butt;stroke-linejoin:miter;stroke-miterlimit:4;stroke-dasharray:none;stroke-opacity:1"
         d="m 14.799413,120.1219 c 3.44451,-8.64879 3.21907,-16.17499 -3.52367,-21.987699 1.48608,8.857789 -3.5777268,14.602249 3.52367,21.987699"
         id="path895"
         sodipodi:nodetypes="ccc" />
      <path
         id="path897"
         style="fill:none;stroke:#7a8844;stroke-width:0.4;stroke-linecap:butt;stroke-linejoin:miter;stroke-miterlimit:4;stroke-dasharray:none;stroke-opacity:1"
         d="m 18.463989,127.13384 c -4.534476,5.96642 -9.583834,13.5534 -3.523816,19.73265 3.411831,-5.06303 6.846208,-12.96368 3.523816,-19.73265 z" />
      <path
         id="path901"
         style="fill:none;stroke:#7a8844;stroke-width:0.4;stroke-linecap:butt;stroke-linejoin:miter;stroke-miterlimit:4;stroke-dasharray:none;stroke-opacity:1"
         d="m 27.260301,151.70561 c -10.802383,-0.66685 -15.763504,6.02206 -16.735224,14.23514 10.835444,-0.9527 12.527247,-8.18516 16.735224,-14.23514 z" />
      <path
         style="fill:none;stroke:#7a8844;stroke-width:0.4;stroke-linecap:butt;stroke-linejoin:miter;stroke-miterlimit:4;stroke-dasharray:none;stroke-opacity:1"
         d="m 44.182151,150.84293 c -4.20806,-8.72536 -10.079867,-10.29939 -18.298783,-8.97068 7.17747,3.84238 9.706509,10.36845 18.298783,8.97068"
         id="path911"
         sodipodi:nodetypes="ccc" />
      <path
         style="fill:none;stroke:#7a8844;stroke-width:0.4;stroke-linecap:butt;stroke-linejoin:miter;stroke-miterlimit:4;stroke-dasharray:none;stroke-opacity:1"
         d="m 58.070076,149.86167 c -10.300522,3.88418 -19.730156,4.25234 -18.67545,14.79941 7.604111,-6.59825 19.53674,-2.96792 18.67545,-14.79941"
         id="path913"
         sodipodi:nodetypes="ccc" />
      <path
         id="path917"
         style="fill:none;stroke:#7a8844;stroke-width:0.4;stroke-linecap:butt;stroke-linejoin:miter;stroke-miterlimit:4;stroke-dasharray:none;stroke-opacity:1"
         d="m 64.485469,142.25126 c 2.583124,3.6994 4.934667,7.15843 10.110494,7.3701 -0.05018,-0.12987 -0.293489,-7.07124 -10.110494,-7.3701 z" />
      <path
         style="fill:none;stroke:#7a8844;stroke-width:0.4;stroke-linecap:butt;stroke-linejoin:miter;stroke-miterlimit:4;stroke-dasharray:none;stroke-opacity:1"
         d="m 82.60544,151.05117 c -5.385049,0.18255 -5.903635,3.83974 -7.329233,7.04734 4.736737,-0.69252 5.626795,-4.00727 7.329233,-7.04734"
         id="path919"
         sodipodi:nodetypes="ccc" />
    </g>
  </g>
</svg>
