<?xml version="1.0" encoding="UTF-8" standalone="no"?>
<!-- Created with Inkscape (http://www.inkscape.org/) -->

<svg
   width="99.063232mm"
   height="50.00473mm"
   viewBox="0 0 99.063232 50.00473"
   version="1.1"
   id="svg45357"
   inkscape:version="1.1.1 (3bf5ae0d25, 2021-09-20)"
   sodipodi:docname="leaf3.svg"
   xmlns:inkscape="http://www.inkscape.org/namespaces/inkscape"
   xmlns:sodipodi="http://sodipodi.sourceforge.net/DTD/sodipodi-0.dtd"
   xmlns="http://www.w3.org/2000/svg"
   xmlns:svg="http://www.w3.org/2000/svg">
  <sodipodi:namedview
     id="namedview45359"
     pagecolor="#ffffff"
     bordercolor="#666666"
     borderopacity="1.0"
     inkscape:pageshadow="2"
     inkscape:pageopacity="0.0"
     inkscape:pagecheckerboard="0"
     inkscape:document-units="mm"
     showgrid="false"
     inkscape:zoom="0.66368547"
     inkscape:cx="187.58886"
     inkscape:cy="-26.367912"
     inkscape:window-width="1920"
     inkscape:window-height="1001"
     inkscape:window-x="-9"
     inkscape:window-y="-9"
     inkscape:window-maximized="1"
     inkscape:current-layer="layer1" />
  <defs
     id="defs45354" />
  <g
     inkscape:label="Шар 1"
     inkscape:groupmode="layer"
     id="layer1"
     transform="translate(-55.514692,-123.49764)">
    <g
       id="g45327"
       transform="translate(-140.84502,42.206508)"
       style="stroke-width:0.4;stroke-miterlimit:4;stroke-dasharray:none">
      <path
         id="path40855"
         style="fill:none;stroke:#7a8844;stroke-width:0.4;stroke-linecap:butt;stroke-linejoin:miter;stroke-opacity:1;stroke-miterlimit:4;stroke-dasharray:none"
         d="m 233.77201,111.1849 c 6.35395,-3.98291 18.10804,-1.8629 16.05297,-10.65652 -7.34868,-0.944136 -12.43176,3.86933 -16.05297,10.65652 z"
         sodipodi:nodetypes="ccc" />
      <path
         id="path40859"
         style="fill:none;stroke:#7a8844;stroke-width:0.4;stroke-linecap:butt;stroke-linejoin:miter;stroke-opacity:1;stroke-miterlimit:4;stroke-dasharray:none"
         d="m 252.33506,81.640673 c -1.95467,9.040342 -2.65958,18.538877 10.28878,19.168857 2.98364,-6.235356 -6.48809,-12.992738 -10.28878,-19.168857 z"
         sodipodi:nodetypes="ccc" />
      <path
         id="path40871"
         style="fill:none;stroke:#7a8844;stroke-width:0.4;stroke-linecap:butt;stroke-linejoin:miter;stroke-opacity:1;stroke-miterlimit:4;stroke-dasharray:none"
         d="m 197.49432,101.41528 c -0.39503,0.78899 -0.71961,1.71826 -1.0074,2.72622 2.87091,-3.31582 6.62929,-0.18414 7.34917,-4.3973 -3.34186,-1.80336 -5.15721,-0.69626 -6.34177,1.67108 z" />
      <path
         style="fill:none;stroke:#7a8844;stroke-width:0.4;stroke-linecap:butt;stroke-linejoin:miter;stroke-opacity:1;stroke-miterlimit:4;stroke-dasharray:none"
         d="m 291.42701,131.28966 c 0.80899,-17.25283 -7.44992,-24.46885 -22.69242,-28.89409 -20.86992,-6.059012 -42.98172,3.68676 -63.28511,-2.11421 -9.85473,-2.815634 -7.45905,-19.642336 0.30043,-16.749948 5.1198,1.908435 0.16394,11.616308 -3.57351,6.334056"
         id="path42332"
         sodipodi:nodetypes="csssc" />
      <path
         style="fill:none;stroke:#7a8844;stroke-width:0.4;stroke-linecap:butt;stroke-linejoin:miter;stroke-opacity:1;stroke-miterlimit:4;stroke-dasharray:none"
         d="m 209.43464,101.05768 c -2.68072,-1.899234 -2.1611,-6.026507 -0.69765,-8.770467 2.92581,2.728157 4.95836,7.255015 0.84715,8.870137"
         id="path43677" />
      <path
         style="fill:none;stroke:#7a8844;stroke-width:0.4;stroke-linecap:butt;stroke-linejoin:miter;stroke-opacity:1;stroke-miterlimit:4;stroke-dasharray:none"
         d="m 223.1385,102.20382 c -7.35568,-0.0418 -12.67465,1.97522 -15.14899,7.82366"
         id="path43679" />
      <path
         style="fill:none;stroke:#7a8844;stroke-width:0.4;stroke-linecap:butt;stroke-linejoin:miter;stroke-opacity:1;stroke-miterlimit:4;stroke-dasharray:none"
         d="m 207.98951,110.02748 c 8.65062,-2.47021 15.61019,0.37834 15.14899,-7.82366"
         id="path43681"
         sodipodi:nodetypes="cc" />
      <path
         style="fill:none;stroke:#7a8844;stroke-width:0.4;stroke-linecap:butt;stroke-linejoin:miter;stroke-opacity:1;stroke-miterlimit:4;stroke-dasharray:none"
         d="m 234.20125,101.30684 c -10.54917,2.14378 -10.09925,-6.790967 -7.67416,-13.404862 -0.0439,5.984189 9.60255,8.037335 7.37517,13.504532"
         id="path43683" />
      <path
         style="fill:none;stroke:#7a8844;stroke-width:0.4;stroke-linecap:butt;stroke-linejoin:miter;stroke-opacity:1;stroke-miterlimit:4;stroke-dasharray:none"
         d="m 289.31567,116.95416 c -5.57025,-8.82864 -2.07534,-18.483163 1.39531,-27.407719 5.52536,9.42531 7.15126,19.638109 -1.39531,27.407719"
         id="path43979"
         sodipodi:nodetypes="ccc" />
      <path
         style="fill:none;stroke:#7a8844;stroke-width:0.4;stroke-linecap:butt;stroke-linejoin:miter;stroke-opacity:1;stroke-miterlimit:4;stroke-dasharray:none"
         d="m 278.2108,105.90549 c -7.24903,-2.76362 -14.54471,-0.50603 -18.82303,3.02502 8.94006,6.90464 16.605,4.20778 18.82303,-3.02502"
         id="path44341"
         sodipodi:nodetypes="ccc" />
    </g>
  </g>
</svg>
