<?xml version="1.0" encoding="UTF-8" standalone="no"?>
<!-- Created with Inkscape (http://www.inkscape.org/) -->

<svg
   width="36.20871mm"
   height="17.012869mm"
   viewBox="0 0 36.20871 17.012869"
   version="1.1"
   id="svg1129"
   inkscape:version="1.1.1 (3bf5ae0d25, 2021-09-20)"
   sodipodi:docname="leaf1.svg"
   xmlns:inkscape="http://www.inkscape.org/namespaces/inkscape"
   xmlns:sodipodi="http://sodipodi.sourceforge.net/DTD/sodipodi-0.dtd"
   xmlns="http://www.w3.org/2000/svg"
   xmlns:svg="http://www.w3.org/2000/svg">
  <sodipodi:namedview
     id="namedview1131"
     pagecolor="#ffffff"
     bordercolor="#666666"
     borderopacity="1.0"
     inkscape:pageshadow="2"
     inkscape:pageopacity="0.0"
     inkscape:pagecheckerboard="0"
     inkscape:document-units="mm"
     showgrid="false"
     inkscape:zoom="0.66368547"
     inkscape:cx="-225.25731"
     inkscape:cy="70.063309"
     inkscape:window-width="1920"
     inkscape:window-height="1001"
     inkscape:window-x="-9"
     inkscape:window-y="-9"
     inkscape:window-maximized="1"
     inkscape:current-layer="layer1" />
  <defs
     id="defs1126" />
  <g
     inkscape:label="Шар 1"
     inkscape:groupmode="layer"
     id="layer1"
     transform="translate(-164.48088,-129.82778)">
    <path
       fill-rule="nonzero"
       fill="#1a1a1a"
       fill-opacity="1"
       d="m 187.52614,146.68545 c 0.0607,0.0278 0.14897,0.0499 0.28898,0.0774 0.64306,0.125 1.19833,0.10077 1.89993,-0.0828 0.5271,-0.13785 0.59435,-0.16108 0.91151,-0.31264 0.0936,-0.0446 0.19482,-0.083 0.22537,-0.0852 0.0813,-0.006 1.45846,-0.82122 1.67435,-0.99117 0.20489,-0.16237 0.34429,-0.28762 0.43311,-0.3901 0.0323,-0.038 0.11469,-0.10425 0.18258,-0.14736 0.25402,-0.16116 0.95963,-0.94144 1.21029,-1.33767 0.46594,-0.73573 0.63331,-1.03738 0.69735,-1.2575 0.0561,-0.18984 0.0867,-0.22077 0.25556,-0.25273 0.10501,-0.0202 0.29487,-0.0379 0.42134,-0.0399 0.22508,-0.003 0.98832,-0.046 1.2227,-0.0687 0.0648,-0.006 0.14236,-0.008 0.17293,-0.004 0.03,0.004 0.13553,-0.003 0.23413,-0.0157 0.33332,-0.0443 0.76619,-0.0784 0.89383,-0.0709 0.0689,0.004 0.13094,-0.01 0.13749,-0.0305 0.006,-0.0211 0.041,-0.0302 0.0775,-0.0203 0.0833,0.0223 1.09549,-0.0771 1.70379,-0.16708 0.29169,-0.0431 0.47569,-0.10127 0.50664,-0.15971 0.0279,-0.0509 0.013,-0.13854 -0.0332,-0.19741 -0.0709,-0.0924 -0.11468,-0.10273 -0.3499,-0.083 -0.14814,0.0125 -0.37342,0.0301 -0.50184,0.0387 -0.12887,0.008 -0.36856,0.0357 -0.53334,0.0606 -0.16447,0.025 -0.36388,0.0465 -0.44307,0.0481 -0.079,0.001 -0.20004,0.0212 -0.26926,0.0439 -0.0689,0.0228 -0.16921,0.0288 -0.2239,0.013 -0.0548,-0.0162 -0.18427,-0.0175 -0.28751,-0.003 -0.51408,0.0722 -1.29696,0.1391 -1.68275,0.14438 -0.23689,0.003 -0.55836,0.022 -0.71402,0.0418 -0.27767,0.0354 -0.56226,-0.0474 -0.59716,-0.17386 -0.008,-0.0299 -0.1259,-0.0866 -0.26217,-0.12696 -0.22533,-0.0665 -0.74789,-0.47271 -0.80116,-0.62306 -0.0683,-0.19432 -0.77557,-0.83605 -1.13338,-1.02884 -0.0957,-0.0513 -0.3839,-0.21055 -0.64139,-0.354 -1.69736,-0.9474 -3.03366,-1.34556 -4.23382,-1.26187 -0.22928,0.0158 -0.46758,0.0285 -0.53047,0.0279 -0.65684,-0.005 0.11216,1.19437 1.04332,1.62653 0.2077,0.0963 0.51686,0.22912 0.68718,0.29499 0.16941,0.0654 0.3653,0.14622 0.4341,0.17901 0.0689,0.0325 0.432,0.20195 0.80688,0.37653 0.37425,0.17429 0.8703,0.42324 1.10332,0.55343 0.23197,0.13008 0.59104,0.29207 0.79642,0.35969 0.2057,0.0678 0.36894,0.14081 0.36257,0.16251 -0.006,0.0217 -0.1193,0.0363 -0.25215,0.032 -0.13286,-0.004 -0.3579,-0.006 -0.50058,-0.003 -0.14175,0.003 -0.42433,-0.003 -0.62597,-0.0117 -0.20207,-0.009 -0.42119,-0.009 -0.48669,-2.6e-4 -0.066,0.008 -0.33542,0.008 -0.60027,-0.003 -0.265,-0.0102 -0.53547,-0.0103 -0.6014,-2.4e-4 -0.13264,0.02 -0.71746,2.6e-4 -1.10521,-0.0376 -0.36601,-0.0356 -1.13974,-0.0485 -1.29278,-0.0215 -0.074,0.013 -0.22114,-0.0186 -0.3323,-0.0711 -0.11441,-0.0544 -0.21439,-0.0756 -0.23275,-0.049 -0.0171,0.0253 -0.12846,0.0336 -0.246,0.0188 -0.18583,-0.0238 -0.22894,-0.0539 -0.33288,-0.23348 -0.12748,-0.21965 -0.68155,-0.96413 -1.18573,-1.59272 -0.26557,-0.33066 -0.98314,-1.0209 -1.51251,-1.45499 -0.22499,-0.18436 -1.1424,-0.79206 -1.58349,-1.0483 -0.5962,-0.34677 -1.52614,-0.55531 -1.73197,-0.38852 -0.0901,0.0724 -0.12087,0.237 -0.0406,0.21462 0.0439,-0.0124 0.0507,-6.7e-4 0.0166,0.0301 -0.0495,0.0446 0.0754,0.28731 0.49109,0.95351 0.10135,0.16265 0.86359,0.82437 0.99222,0.86186 0.0313,0.009 0.0591,0.0399 0.0618,0.0687 0.003,0.0524 0.34791,0.48521 0.89326,1.12326 0.28691,0.33537 0.59279,0.60037 1.0061,0.87131 0.10619,0.0696 0.25355,0.17038 0.32856,0.22512 0.12279,0.0893 0.1246,0.0999 0.0218,0.10729 -0.0632,0.004 -0.23559,-0.026 -0.38435,-0.0684 -0.14797,-0.0417 -0.46553,-0.10509 -0.70517,-0.14085 -0.78192,-0.11644 -1.52333,-0.31265 -3.30669,-0.87642 -1.2399,-0.39175 -1.97536,-0.64646 -2.18419,-0.75642 -0.16053,-0.0845 -0.3401,-0.15539 -0.90715,-0.35859 -0.11888,-0.0423 -0.22901,-0.1003 -0.24433,-0.12836 -0.0157,-0.0282 -0.0811,-0.0665 -0.14694,-0.0856 -0.10924,-0.0318 -0.13058,-0.12396 -0.0974,-0.42944 0.008,-0.0798 -0.22991,-1.16776 -0.3195,-1.45756 -0.0574,-0.18478 -0.10071,-0.34692 -0.0965,-0.35991 0.003,-0.0134 -0.009,-0.0601 -0.0283,-0.10362 -0.0189,-0.0435 -0.14142,-0.37185 -0.27305,-0.73018 -0.29684,-0.81224 -0.52076,-1.16497 -1.05563,-1.66589 -0.80415,-0.75222 -1.33034,-0.95729 -1.94529,-0.75836 -0.12495,0.0404 -0.18723,0.10036 -0.22007,0.21583 -0.0404,0.13739 -0.005,0.47228 0.0621,0.58148 0.0115,0.0188 0.052,0.15947 0.089,0.31194 0.14784,0.60274 0.80064,1.63904 1.39538,2.21678 0.30366,0.2946 0.74516,1.01206 0.70526,1.14666 -0.02,0.0713 -0.20958,0.005 -0.51578,-0.18009 -0.14456,-0.0875 -0.28638,-0.15281 -0.31511,-0.14487 -0.0284,0.008 -0.0445,-0.011 -0.0359,-0.0417 0.009,-0.0307 -0.0155,-0.0652 -0.0561,-0.0769 -0.0395,-0.0116 -0.24226,-0.13525 -0.44932,-0.27389 -0.20751,-0.13923 -0.49618,-0.33046 -0.64247,-0.42549 -0.14537,-0.0946 -0.41518,-0.27256 -0.60012,-0.3953 -0.18494,-0.12275 -0.434,-0.28431 -0.55395,-0.35886 -0.49249,-0.30632 -0.64857,-0.47017 -1.01143,-1.06284 -0.11336,-0.1858 -0.2539,-0.37902 -0.31211,-0.42892 -0.0573,-0.0495 -0.0997,-0.10845 -0.0932,-0.13045 0.007,-0.022 -0.10053,-0.11706 -0.23909,-0.21184 -0.31234,-0.21421 -0.74805,-0.57666 -0.76969,-0.64091 -0.0547,-0.16 -0.54951,-0.59703 -0.99418,-0.87846 -0.28427,-0.17984 -0.56778,-0.37651 -0.62855,-0.43694 -0.18368,-0.18081 -1.05764,-0.93716 -1.23477,-1.06784 -0.31746,-0.23453 -0.48569,-0.40516 -0.65756,-0.66827 -0.12672,-0.1924 -0.2228,-0.27973 -0.35173,-0.31736 -0.14314,-0.0416 -0.1836,-0.031 -0.2089,0.0563 -0.0276,0.0937 0.0547,0.82126 0.12769,1.13697 0.0136,0.059 0.0393,0.16815 0.0572,0.24297 0.0866,0.3661 1.05987,2.12928 1.19706,2.16925 0.0227,0.006 0.0754,0.0643 0.11736,0.12826 0.0419,0.064 0.24335,0.2781 0.44828,0.47665 0.20493,0.19856 0.5609,0.55414 0.79126,0.79032 0.72435,0.74308 1.3178,1.05644 2.18373,1.15373 0.53457,0.0595 1.06827,0.006 1.07614,-0.10857 0.001,-0.0352 0.0103,-0.0613 0.0171,-0.0597 0.049,0.0143 0.72139,0.45178 0.85445,0.55596 0.14591,0.11428 0.66299,0.46008 0.79051,0.52881 0.0275,0.0147 0.27687,0.17564 0.55405,0.35703 0.2778,0.18168 0.84252,0.53024 1.25508,0.77393 0.41241,0.24399 0.81005,0.50129 0.88413,0.57166 0.32748,0.31167 0.90815,0.59068 1.02006,0.48999 0.053,-0.0482 0.55301,0.14584 0.6075,0.23585 0.0173,0.0286 -0.0872,0.0356 -0.23339,0.015 -0.37164,-0.0524 -1.26589,-0.10011 -1.34299,-0.0718 -0.0349,0.0132 -0.17624,0.0102 -0.31262,-0.007 -0.45415,-0.0557 -1.02519,-0.005 -2.26286,0.20112 -0.67075,0.11093 -0.97305,0.14874 -1.09904,0.13527 -0.22885,-0.0236 -0.69323,0.21777 -0.7419,0.38565 -0.10988,0.3755 0.69295,0.95412 1.75053,1.26246 0.25358,0.074 0.55709,0.14512 0.6752,0.15865 0.40693,0.0464 1.17445,0.0758 1.23927,0.0474 0.036,-0.0154 0.16465,-0.0182 0.28605,-0.006 0.46162,0.0461 1.62865,-0.12848 2.03742,-0.30425 0.0361,-0.0157 0.15938,-0.0607 0.27358,-0.1005 0.23319,-0.0819 0.94319,-0.43761 0.95476,-0.4793 0.004,-0.0149 0.0897,-0.0875 0.18992,-0.1615 0.10054,-0.0739 0.20102,-0.19743 0.22343,-0.27442 0.0378,-0.12963 0.0587,-0.13557 0.26546,-0.0766 0.12403,0.0353 0.82599,0.24084 1.5596,0.45621 0.73438,0.2161 1.7588,0.48732 2.27612,0.60233 0.5181,0.11575 0.95122,0.22705 0.96241,0.24795 0.0115,0.0211 -0.0558,0.0461 -0.14922,0.0557 -0.0936,0.01 -0.33394,0.0496 -0.53377,0.0888 -0.20061,0.0385 -0.54762,0.10326 -0.77181,0.14344 -0.22407,0.0399 -0.41437,0.0947 -0.4221,0.12174 -0.008,0.0269 -0.0477,0.0391 -0.0883,0.0276 -0.11106,-0.0327 -0.6369,0.1947 -1.47046,0.63518 -0.70245,0.37077 -0.74223,0.40082 -0.73394,0.5515 0.005,0.1068 0.0601,0.19349 0.16612,0.26343 0.40577,0.26631 1.73753,0.54505 2.51615,0.52657 0.20608,-0.005 0.40501,-8.1e-4 0.44135,0.009 0.088,0.0245 0.49761,-0.0272 1.20341,-0.15242 0.68379,-0.12129 1.20199,-0.31223 2.01122,-0.739 0.32971,-0.17449 0.64153,-0.33863 0.69307,-0.36506 0.0517,-0.0267 0.10025,-0.0717 0.10795,-0.10029 0.008,-0.0279 0.0941,-0.0978 0.18993,-0.15514 0.0964,-0.0571 0.25588,-0.19804 0.35448,-0.31352 l 0.18085,-0.20943 0.54352,0.0275 c 1.0634,0.0544 2.53456,0.0932 2.83602,0.074 0.16927,-0.0105 0.31175,-0.014 0.31739,-0.008 0.0228,0.0248 0.64855,0.045 0.97805,0.0314 0.19129,-0.008 0.43629,-0.009 0.54406,-0.002 0.10856,0.008 0.24834,0.0155 0.31008,0.0185 0.16112,0.007 1.65496,-0.005 1.77136,-0.0146 0.0526,-0.005 0.09,0.012 0.0822,0.0368 -0.006,0.025 -0.13233,0.0579 -0.27888,0.0734 -0.14624,0.0156 -0.27211,0.05 -0.27942,0.0761 -0.008,0.0263 -0.0482,0.0377 -0.0903,0.0256 -0.39077,-0.11399 -3.06756,1.43403 -3.83402,2.21735 -0.0512,0.052 -0.12106,0.11399 -0.15588,0.13738 -0.26378,0.18053 -0.50006,0.36938 -0.51251,0.41215 -0.0127,0.0467 -0.42588,0.36657 -0.52295,0.40655 -0.0551,0.0218 -0.7389,0.58619 -0.74792,0.61598 -0.004,0.013 -0.1066,0.1013 -0.22912,0.19593 -0.25968,0.20224 -0.30273,0.30511 -0.19686,0.47658 0.0315,0.0513 0.0662,0.0858 0.12681,0.1136 z m 0.60368,-0.27181 c -0.0842,-0.0246 -0.0839,-0.0413 0.002,-0.12853 0.16611,-0.16736 0.53804,-0.48545 0.58744,-0.50167 0.0258,-0.008 0.45028,-0.36119 0.944,-0.78433 1.14494,-0.97993 1.68646,-1.36213 2.63349,-1.85774 0.91222,-0.47782 1.30102,-0.63077 1.75742,-0.69059 0.29995,-0.04 0.33845,-0.0344 0.31012,0.0424 -0.1372,0.37849 -1.10753,1.69227 -1.22471,1.65825 -0.02,-0.006 -0.13382,0.0987 -0.25235,0.23219 -0.11859,0.13344 -0.25742,0.26717 -0.30765,0.29721 -0.0512,0.0296 -0.28945,0.20033 -0.53084,0.37933 -0.24018,0.17957 -0.53291,0.38696 -0.64964,0.46112 -0.2839,0.182 -1.4062,0.67369 -1.67409,0.73387 -0.11774,0.0266 -0.30092,0.0709 -0.4059,0.099 -0.22261,0.0592 -1.04803,0.10037 -1.18887,0.0594 z m -8.07937,-3.22989 c -0.3831,-0.0831 -0.35949,-0.15471 -0.0657,-0.30667 0.98513,-0.50925 1.59352,-0.73179 2.35743,-0.85986 0.13257,-0.0223 0.25778,-0.0529 0.27781,-0.0686 0.14462,-0.11161 2.69017,-0.24983 2.98835,-0.16327 0.0982,0.029 0.28645,0.046 0.41899,0.039 0.13162,-0.007 0.2384,-0.009 0.23722,-0.002 -0.002,0.006 -0.10614,0.0739 -0.23096,0.15097 -0.12499,0.0774 -0.43076,0.26791 -0.68072,0.42275 -0.60683,0.37644 -1.47868,0.70419 -2.23075,0.83815 -0.33895,0.0603 -0.66105,0.10536 -0.71619,0.10022 -0.0559,-0.005 -0.18049,-7.3e-4 -0.27794,0.01 -0.35595,0.0375 -1.05988,0.006 -1.55291,-0.0686 -0.22324,-0.0341 -0.39709,-0.0635 -0.52468,-0.0912 z m -7.76082,-2.3287 c -0.68053,-0.17533 -1.42196,-0.57367 -1.32579,-0.71195 0.0206,-0.0296 0.22066,-0.0695 0.44483,-0.0887 0.22478,-0.019 0.59955,-0.072 0.8333,-0.11743 0.89582,-0.17386 2.07046,-0.27093 2.63984,-0.21797 0.0615,0.006 0.16307,0.0117 0.22567,0.0128 0.39178,0.008 1.00043,0.0676 1.6629,0.16058 0.41986,0.0595 0.78592,0.12391 0.8148,0.14371 0.0542,0.0376 -0.54195,0.37752 -0.9118,0.52024 -0.11652,0.0447 -0.2559,0.10424 -0.31012,0.13242 -0.76362,0.39944 -2.83852,0.48412 -4.07363,0.16633 z m 12.88567,0.34636 c -0.23327,-0.0679 -1.21635,-0.60196 -1.42447,-0.77361 -0.0643,-0.0528 -0.13869,-0.10493 -0.16687,-0.11582 -0.21879,-0.087 -0.94568,-0.78526 -1.13492,-1.08971 -0.22051,-0.35601 -1.12545,-1.26165 -1.31488,-1.31699 -0.0421,-0.0121 -0.0717,-0.0435 -0.0637,-0.0685 0.007,-0.026 -0.0501,-0.0977 -0.12656,-0.15907 -0.12816,-0.10265 -0.35476,-0.54668 -0.32785,-0.64137 0.0315,-0.10825 1.26163,0.45342 1.59167,0.72669 0.051,0.042 0.25324,0.18706 0.45066,0.32233 0.40782,0.28034 0.8718,0.65185 1.29916,1.04029 0.27575,0.25023 0.9734,1.0683 1.01841,1.19387 0.0112,0.0314 0.15937,0.22255 0.3288,0.42512 0.16974,0.20272 0.31517,0.39187 0.32277,0.42044 0.0244,0.0872 -0.2119,0.10606 -0.45219,0.0364 z m -10.06312,-2.98955 c -0.19216,-0.0559 -0.23754,-0.10204 -0.38695,-0.39093 -0.0923,-0.17972 -0.22196,-0.45158 -0.28757,-0.60431 -0.21401,-0.49756 -0.36655,-0.70833 -0.81583,-1.12829 -0.26132,-0.2435 -0.45207,-0.50382 -0.83039,-1.12909 -0.27195,-0.45095 -0.54097,-1.34139 -0.42795,-1.41803 0.13522,-0.0913 0.59183,0.0152 0.86003,0.20064 0.22957,0.15848 0.75932,0.64953 0.89185,0.82707 0.0945,0.12586 0.47415,0.81823 0.54398,0.99235 0.1258,0.31152 0.41004,1.25352 0.39486,1.30698 -0.008,0.0299 0.0209,0.13715 0.0653,0.23925 0.0445,0.10179 0.12192,0.36875 0.17102,0.59225 0.11827,0.53629 0.0986,0.5929 -0.17841,0.51208 z m -6.42976,-2.83302 c -0.42024,-0.13894 -0.62569,-0.30185 -1.56455,-1.23898 -0.24344,-0.2434 -0.49182,-0.48423 -0.55017,-0.53382 -0.23483,-0.20015 -0.52176,-0.60689 -0.9149,-1.2966 -0.47058,-0.82591 -0.80051,-1.7436 -0.53264,-1.48285 0.0427,0.0416 0.27904,0.22634 0.52461,0.40982 0.24618,0.18378 0.59787,0.47795 0.78249,0.65434 0.18539,0.17713 0.49885,0.4266 0.69715,0.55519 0.56135,0.3638 0.82197,0.57596 1.07018,0.8709 0.12538,0.14955 0.3834,0.40496 0.5725,0.56774 0.49274,0.42451 0.63667,0.56551 0.62265,0.61166 -0.007,0.0224 0.0176,0.0504 0.0538,0.0617 0.0672,0.0216 0.2885,0.3376 0.27329,0.3903 -0.005,0.0155 -0.0388,0.02 -0.0747,0.0104 -0.13624,-0.038 -0.23822,0.0269 -0.21337,0.13563 0.0134,0.0578 0.0412,0.10737 0.0608,0.11013 0.0354,0.006 0.0467,0.0105 0.12112,0.056 0.02,0.0123 0.12081,0.0671 0.22341,0.12197 0.10212,0.0543 0.19193,0.11816 0.19833,0.14132 0.0241,0.0878 -0.96693,-0.0184 -1.35001,-0.14489 z m 23.86464,5.56512 c -0.32474,-0.10977 -0.66672,-0.25632 -1.00409,-0.43362 -0.32815,-0.17224 -0.73528,-0.36821 -0.90551,-0.4359 -0.16868,-0.067 -0.48726,-0.21086 -0.70803,-0.32002 -0.22,-0.10844 -0.58611,-0.26736 -0.81305,-0.35287 -0.58678,-0.22096 -1.02105,-0.48784 -1.2248,-0.7531 -0.0962,-0.12551 -0.16888,-0.2535 -0.16004,-0.2845 0.0243,-0.0962 1.03781,-0.0536 1.70086,0.071 0.62345,0.11736 1.29627,0.35896 1.679,0.60334 0.0795,0.0508 0.23263,0.13262 0.34083,0.18189 0.32323,0.1483 1.22249,0.65862 1.54108,0.87462 0.18085,0.12271 0.42137,0.36436 0.60946,0.61112 0.17096,0.22495 0.30726,0.41844 0.30413,0.43156 -0.0134,0.0456 -0.10849,0.0485 -0.46344,0.0132 -0.26528,-0.0257 -0.57153,-0.0973 -0.8964,-0.20675 z m 0,0"
       id="path36"
       style="fill:#677821;stroke-width:0.0867037"
       sodipodi:insensitive="true" />
  </g>
</svg>
